<svg width="353" height="367" viewBox="0 0 353 367" fill="none" xmlns="http://www.w3.org/2000/svg">
<path d="M0.260986 366.636L223.796 262.472L102.313 142.129L0.260986 366.636Z" fill="#9A66CD"/>
<path d="M132.46 259.621C147.438 259.621 159.581 247.479 159.581 232.5C159.581 217.522 147.438 205.379 132.46 205.379C117.481 205.379 105.339 217.522 105.339 232.5C105.339 247.479 117.481 259.621 132.46 259.621Z" fill="#BE97DD"/>
<path d="M57.791 240.073C65.298 240.512 72.949 237.854 78.657 232.091C89.111 221.539 89.112 204.566 78.733 194.004L57.791 240.073Z" fill="#BE97DD"/>
<path d="M27.9849 337.966C22.6659 343.337 20.0549 350.369 20.1379 357.374L64.9349 336.498C54.2379 327.277 38.0759 327.78 27.9849 337.966Z" fill="#BE97DD"/>
<path d="M135.845 283.129C129.411 289.624 126.942 298.552 128.409 306.921L175.893 284.794C175.359 284.16 174.8 283.542 174.2 282.948C163.559 272.407 146.387 272.488 135.845 283.129Z" fill="#BE97DD"/>
<path d="M70.1769 313.572C85.1554 313.572 97.2979 301.43 97.2979 286.451C97.2979 271.473 85.1554 259.33 70.1769 259.33C55.1984 259.33 43.0559 271.473 43.0559 286.451C43.0559 301.43 55.1984 313.572 70.1769 313.572Z" fill="#BE97DD"/>
<path d="M89.3059 170.743L195.305 275.748L223.796 262.472L102.313 142.129L89.3059 170.743Z" fill="#7135A1"/>
<path d="M128 105.176C138.216 105.176 146.497 96.8946 146.497 86.679C146.497 76.4634 138.216 68.182 128 68.182C117.784 68.182 109.503 76.4634 109.503 86.679C109.503 96.8946 117.784 105.176 128 105.176Z" fill="#BE97DD"/>
<path d="M269.53 254.055C279.746 254.055 288.027 245.774 288.027 235.558C288.027 225.342 279.746 217.061 269.53 217.061C259.314 217.061 251.033 225.342 251.033 235.558C251.033 245.774 259.314 254.055 269.53 254.055Z" fill="#BE97DD"/>
<path d="M309.74 171.535C319.956 171.535 328.237 163.254 328.237 153.038C328.237 142.822 319.956 134.541 309.74 134.541C299.524 134.541 291.243 142.822 291.243 153.038C291.243 163.254 299.524 171.535 309.74 171.535Z" fill="#E3D2F0"/>
<path d="M169.102 36.994C179.318 36.994 187.599 28.7126 187.599 18.497C187.599 8.28139 179.318 0 169.102 0C158.886 0 150.605 8.28139 150.605 18.497C150.605 28.7126 158.886 36.994 169.102 36.994Z" fill="#BE97DD"/>
<path d="M221.315 199.916C231.53 199.916 239.812 191.635 239.812 181.419C239.812 171.203 231.53 162.922 221.315 162.922C211.099 162.922 202.818 171.203 202.818 181.419C202.818 191.635 211.099 199.916 221.315 199.916Z" fill="#E3D2F0"/>
<path d="M232.536 93.184C242.752 93.184 251.033 84.9026 251.033 74.687C251.033 64.4714 242.752 56.19 232.536 56.19C222.32 56.19 214.039 64.4714 214.039 74.687C214.039 84.9026 222.32 93.184 232.536 93.184Z" fill="#9A66CD"/>
<path d="M327.385 101.676C337.601 101.676 345.882 93.3946 345.882 83.179C345.882 72.9634 337.601 64.682 327.385 64.682C317.169 64.682 308.888 72.9634 308.888 83.179C308.888 93.3946 317.169 101.676 327.385 101.676Z" fill="#E3D2F0"/>
<path d="M126.624 143.693C122.857 143.693 119.805 140.64 119.805 136.874C119.805 133.108 122.857 130.055 126.624 130.055C152.001 130.055 172.648 109.409 172.648 84.031C172.648 51.133 199.412 24.369 232.31 24.369C265.207 24.369 291.971 51.133 291.971 84.031C291.971 87.797 288.918 90.849 285.153 90.849C281.388 90.849 278.335 87.797 278.335 84.031C278.335 58.653 257.688 38.007 232.311 38.007C206.933 38.007 186.287 58.653 186.287 84.031C186.285 116.929 159.52 143.693 126.624 143.693Z" fill="#7135A1"/>
<path d="M305.259 210.037C279.281 210.037 258.144 188.901 258.144 162.922C258.144 144.463 243.125 129.443 224.666 129.443C206.206 129.443 191.187 144.462 191.187 162.922C191.187 166.688 188.134 169.74 184.37 169.74C180.603 169.74 177.551 166.688 177.551 162.922C177.551 136.943 198.687 115.807 224.666 115.807C250.645 115.807 271.781 136.943 271.781 162.922C271.781 181.382 286.799 196.4 305.259 196.4C323.719 196.4 338.737 181.382 338.737 162.922C338.737 159.156 341.791 156.104 345.557 156.104C349.321 156.104 352.374 159.156 352.374 162.922C352.375 188.901 331.239 210.037 305.259 210.037Z" fill="#7135A1"/>
</svg>
