<svg width="298" height="44" viewBox="0 0 298 44" fill="none" xmlns="http://www.w3.org/2000/svg">
<path d="M31.7746 37.624C32.26 38.3707 32.8386 39.024 33.5106 39.584C34.22 40.1067 34.78 40.536 35.1906 40.872C35.6013 41.1707 35.8066 41.5067 35.8066 41.88V42.048C35.8066 42.6827 35.3773 43 34.5186 43H22.8146C21.9933 43 21.5826 42.6827 21.5826 42.048V41.88C21.5826 41.544 21.788 41.1707 22.1986 40.76C22.6466 40.312 22.9453 39.92 23.0946 39.584C23.2813 39.2107 23.188 38.5573 22.8146 37.624L16.9346 27.88L10.7746 27.992V37.624C10.7746 38.4827 11.1666 39.3227 11.9506 40.144C12.772 40.928 13.1826 41.5067 13.1826 41.88V42.048C13.1826 42.6827 12.7346 43 11.8386 43H1.31063C0.489292 43 0.078625 42.6827 0.078625 42.048V41.88C0.078625 41.5067 0.433292 40.928 1.14263 40.144C1.85196 39.3227 2.20663 38.4827 2.20663 37.624V8.616C2.20663 7.75733 1.85196 6.936 1.14263 6.152C0.433292 5.33067 0.078625 4.73333 0.078625 4.36V4.136C0.078625 3.53867 0.489292 3.24 1.31063 3.24H15.1426C20.332 3.24 24.4386 4.304 27.4626 6.432C30.524 8.56 32.0733 11.6773 32.1106 15.784C32.1106 18.0613 31.4386 20.1707 30.0946 22.112C28.788 24.016 26.9026 25.4907 24.4386 26.536L31.7746 37.624ZM13.9106 24.576H16.3186C18.4466 24.576 20.1453 23.9227 21.4146 22.616C22.7213 21.272 23.3746 19.312 23.3746 16.736C23.3746 13.6747 22.4786 11.2293 20.6866 9.4C18.932 7.57066 16.8973 6.656 14.5826 6.656H12.6786C11.4093 6.656 10.7746 7.496 10.7746 9.176V20.824C10.7746 22.168 11.0173 23.1387 11.5026 23.736C12.0253 24.296 12.828 24.576 13.9106 24.576ZM58.6673 34.488C59.0033 34.04 59.414 33.8907 59.8993 34.04C60.3846 34.1893 60.6086 34.544 60.5713 35.104C60.3846 37.0453 59.2646 38.9493 57.2113 40.816C55.158 42.6453 52.4886 43.56 49.2033 43.56C45.246 43.56 41.998 42.2533 39.4593 39.64C36.9206 37.0267 35.6513 33.592 35.6513 29.336C35.6513 25.3413 36.9766 22.056 39.6273 19.48C42.278 16.8667 45.47 15.56 49.2033 15.56C52.6006 15.56 55.214 16.3627 57.0433 17.968C58.8726 19.5733 59.7873 21.4213 59.7873 23.512C59.7873 25.2293 58.966 26.4613 57.3233 27.208L44.8913 32.864C46.422 36.112 48.886 37.736 52.2833 37.736C53.702 37.736 54.9713 37.4373 56.0913 36.84C57.2486 36.2053 58.1073 35.4213 58.6673 34.488ZM48.1953 18.024C46.7393 18.024 45.582 18.7333 44.7233 20.152C43.8646 21.5333 43.4353 23.3067 43.4353 25.472C43.4353 27.3013 43.622 28.9067 43.9953 30.288L51.2193 26.648C52.19 26.1627 52.6753 25.2853 52.6753 24.016C52.6753 22.7467 52.2646 21.44 51.4433 20.096C50.622 18.7147 49.5393 18.024 48.1953 18.024ZM75.1431 43.504C71.6338 43.504 68.7591 42.8693 66.5191 41.6C64.2791 40.3307 63.1591 38.8 63.1591 37.008C63.1591 36 63.4578 35.2347 64.0551 34.712C64.6898 34.1893 65.5111 33.928 66.5191 33.928C67.6018 33.928 68.4791 34.32 69.1511 35.104C69.8231 35.8507 70.2898 36.6907 70.5511 37.624C70.8498 38.5573 71.3725 39.416 72.1191 40.2C72.9031 40.9467 73.9111 41.32 75.1431 41.32C76.3378 41.32 77.3085 41.0027 78.0551 40.368C78.8391 39.7333 79.2311 38.8187 79.2311 37.624C79.2311 36.28 78.6898 35.216 77.6071 34.432C76.5618 33.648 75.2738 33.0693 73.7431 32.696C72.2125 32.2853 70.6818 31.8373 69.1511 31.352C67.6205 30.8293 66.3138 29.952 65.2311 28.72C64.1858 27.4507 63.6631 25.808 63.6631 23.792C63.6631 21.4027 64.7085 19.4427 66.7991 17.912C68.9271 16.344 71.6711 15.56 75.0311 15.56C78.4285 15.56 81.1911 16.232 83.3191 17.576C85.4845 18.8827 86.5671 20.4507 86.5671 22.28C86.5671 23.1013 86.2498 23.792 85.6151 24.352C85.0178 24.912 84.2711 25.192 83.3751 25.192C82.3298 25.192 81.4898 24.8187 80.8551 24.072C80.2205 23.288 79.7725 22.448 79.5111 21.552C79.2498 20.6187 78.7831 19.7787 78.1111 19.032C77.4391 18.248 76.5618 17.856 75.4791 17.856C74.3965 17.856 73.5191 18.2293 72.8471 18.976C72.1751 19.6853 71.8391 20.5627 71.8391 21.608C71.8391 22.6533 72.1191 23.5307 72.6791 24.24C73.2391 24.9493 73.9671 25.4907 74.8631 25.864C75.7591 26.2373 76.7485 26.592 77.8311 26.928C78.9138 27.2267 79.9965 27.5813 81.0791 27.992C82.1991 28.3653 83.2071 28.832 84.1031 29.392C84.9991 29.952 85.7271 30.7547 86.2871 31.8C86.8471 32.808 87.1271 34.04 87.1271 35.496C87.1271 37.8107 86.0445 39.7333 83.8791 41.264C81.7138 42.7573 78.8018 43.504 75.1431 43.504ZM112.972 34.488C113.308 34.04 113.719 33.8907 114.204 34.04C114.689 34.1893 114.913 34.544 114.876 35.104C114.689 37.0453 113.569 38.9493 111.516 40.816C109.463 42.6453 106.793 43.56 103.508 43.56C99.5507 43.56 96.3027 42.2533 93.764 39.64C91.2253 37.0267 89.956 33.592 89.956 29.336C89.956 25.3413 91.2813 22.056 93.932 19.48C96.5827 16.8667 99.7747 15.56 103.508 15.56C106.905 15.56 109.519 16.3627 111.348 17.968C113.177 19.5733 114.092 21.4213 114.092 23.512C114.092 25.2293 113.271 26.4613 111.628 27.208L99.196 32.864C100.727 36.112 103.191 37.736 106.588 37.736C108.007 37.736 109.276 37.4373 110.396 36.84C111.553 36.2053 112.412 35.4213 112.972 34.488ZM102.5 18.024C101.044 18.024 99.8867 18.7333 99.028 20.152C98.1693 21.5333 97.74 23.3067 97.74 25.472C97.74 27.3013 97.9267 28.9067 98.3 30.288L105.524 26.648C106.495 26.1627 106.98 25.2853 106.98 24.016C106.98 22.7467 106.569 21.44 105.748 20.096C104.927 18.7147 103.844 18.024 102.5 18.024ZM134.824 15.56C136.429 15.56 137.68 16.0453 138.576 17.016C139.509 17.9493 139.976 19.1627 139.976 20.656C139.976 23.6053 138.781 25.08 136.392 25.08C135.421 25.08 134.656 24.8373 134.096 24.352C133.573 23.8293 133.256 23.2693 133.144 22.672C133.032 22.0747 132.808 21.5333 132.472 21.048C132.136 20.5253 131.632 20.264 130.96 20.264C129.952 20.264 129.205 20.8613 128.72 22.056C128.234 23.2507 127.992 24.7067 127.992 26.424V37.624C127.992 38.296 128.216 38.8933 128.664 39.416C129.149 39.9013 129.616 40.3307 130.064 40.704C130.549 41.0773 130.792 41.4507 130.792 41.824V42.048C130.792 42.6827 130.381 43 129.56 43H119.2C118.341 43 117.912 42.6827 117.912 42.048V41.824C117.912 41.4507 118.266 40.872 118.976 40.088C119.722 39.304 120.096 38.4827 120.096 37.624V24.52C120.096 23.624 119.666 22.8213 118.808 22.112C117.949 21.4027 117.52 20.8613 117.52 20.488V20.264C117.52 19.7413 117.912 19.2933 118.696 18.92L125.416 15.784C126.61 15.224 127.208 15.5973 127.208 16.904V21.104C128.477 17.408 131.016 15.56 134.824 15.56ZM169.521 16.12C170.305 16.12 170.697 16.4187 170.697 17.016V17.24C170.697 17.688 170.193 18.3227 169.185 19.144C168.177 19.928 167.524 20.712 167.225 21.496L159.497 41.656C159.198 42.552 158.582 43 157.649 43H154.009C153.188 43 152.59 42.552 152.217 41.656L142.921 21.496C142.622 20.824 142.081 20.0773 141.297 19.256C140.55 18.3973 140.177 17.7253 140.177 17.24V17.016C140.177 16.4187 140.55 16.12 141.297 16.12H152.441C153.188 16.12 153.561 16.4373 153.561 17.072V17.296C153.561 17.5947 153.393 17.968 153.057 18.416C152.721 18.864 152.46 19.2933 152.273 19.704C152.086 20.0773 152.124 20.7307 152.385 21.664L158.265 36.728L163.529 22.728C163.902 21.384 163.94 20.4507 163.641 19.928C163.342 19.4053 162.913 18.92 162.353 18.472C161.83 17.9867 161.569 17.5947 161.569 17.296V17.072C161.569 16.4373 161.961 16.12 162.745 16.12H169.521ZM196.814 37.4C196.926 38.2587 197.131 38.9493 197.43 39.472C197.766 39.9947 198.102 40.3307 198.438 40.48C198.774 40.592 199.072 40.7413 199.334 40.928C199.595 41.1147 199.726 41.376 199.726 41.712C199.726 42.7947 197.934 43.336 194.35 43.336C192.707 43.336 191.494 43.1307 190.71 42.72C189.963 42.272 189.515 41.4693 189.366 40.312C187.91 42.4773 185.427 43.56 181.918 43.56C178.782 43.56 176.243 42.832 174.302 41.376C172.36 39.92 171.39 37.8293 171.39 35.104C171.352 32.416 172.304 30.3253 174.246 28.832C176.187 27.3387 178.614 26.592 181.526 26.592C183.99 26.592 186.024 27.152 187.63 28.272L187.574 27.6C187.2 24.0533 186.678 21.552 186.006 20.096C185.334 18.64 184.195 17.912 182.59 17.912C181.582 17.912 180.76 18.2853 180.126 19.032C179.491 19.7787 179.043 20.6 178.782 21.496C178.52 22.392 178.091 23.2133 177.494 23.96C176.896 24.7067 176.131 25.08 175.198 25.08C174.19 25.08 173.368 24.8 172.734 24.24C172.136 23.6427 171.838 22.8773 171.838 21.944C171.838 20.0027 172.864 18.4533 174.918 17.296C177.008 16.1387 179.566 15.56 182.59 15.56C186.211 15.56 189.179 16.5867 191.494 18.64C193.808 20.6933 195.171 23.4933 195.582 27.04L196.814 37.4ZM184.382 41.096C185.614 41.096 186.603 40.592 187.35 39.584C188.096 38.5387 188.432 37.3627 188.358 36.056L188.19 34.096C188.04 32.4907 187.555 31.2587 186.734 30.4C185.95 29.5413 184.96 29.112 183.766 29.112C182.571 29.112 181.582 29.5413 180.798 30.4C180.051 31.2587 179.678 32.3973 179.678 33.816C179.678 35.832 180.107 37.5493 180.966 38.968C181.862 40.3867 183 41.096 184.382 41.096ZM230.589 37.568C230.664 38.464 231.018 39.304 231.653 40.088C232.288 40.872 232.605 41.4693 232.605 41.88V42.104C232.605 42.7387 232.176 43.056 231.317 43.056H221.629C220.77 43.056 220.341 42.7387 220.341 42.104V41.88C220.341 41.5067 220.677 40.928 221.349 40.144C222.058 39.36 222.394 38.5013 222.357 37.568L221.797 27.208C221.536 21.5707 219.912 18.752 216.925 18.752C215.432 18.752 214.256 19.312 213.397 20.432C212.576 21.552 212.165 23.0453 212.165 24.912V37.624C212.165 38.52 212.557 39.36 213.341 40.144C214.162 40.928 214.573 41.5067 214.573 41.88V42.104C214.573 42.7387 214.144 43.056 213.285 43.056H202.869C202.01 43.056 201.581 42.7387 201.581 42.104V41.88C201.581 41.5067 201.973 40.928 202.757 40.144C203.578 39.36 203.989 38.52 203.989 37.624V24.576C203.989 24.016 203.84 23.512 203.541 23.064C203.28 22.616 202.962 22.2987 202.589 22.112C202.253 21.888 201.936 21.6267 201.637 21.328C201.376 21.0293 201.245 20.7307 201.245 20.432V20.208C201.245 19.7973 201.618 19.4053 202.365 19.032L209.029 15.784C209.664 15.4853 210.13 15.4667 210.429 15.728C210.765 15.952 210.933 16.3627 210.933 16.96V20.096C212.538 17.072 215.301 15.56 219.221 15.56C222.058 15.56 224.466 16.512 226.445 18.416C228.461 20.32 229.618 23.344 229.917 27.488L230.589 37.568ZM262.597 37.624C262.597 38.4827 262.97 39.3227 263.717 40.144C264.463 40.928 264.837 41.5067 264.837 41.88V42.048C264.837 42.6827 264.463 43 263.717 43H256.773C255.914 43 255.485 42.5893 255.485 41.768L255.373 40.536C253.655 42.552 251.229 43.56 248.093 43.56C244.471 43.56 241.373 42.3093 238.797 39.808C236.221 37.2693 234.933 33.8347 234.933 29.504C234.933 25.4347 236.221 22.0933 238.797 19.48C241.373 16.8667 244.49 15.56 248.149 15.56C250.762 15.56 252.946 16.288 254.701 17.744V8.784C254.701 8.03733 254.458 7.42133 253.973 6.936C253.525 6.45067 253.058 6.04 252.573 5.704C252.125 5.368 251.901 5.01333 251.901 4.64V4.472C251.901 3.83733 252.293 3.408 253.077 3.184L260.413 0.943997C261.869 0.458664 262.597 0.831998 262.597 2.064V37.624ZM249.941 41.152C251.21 41.152 252.311 40.6293 253.245 39.584C254.215 38.5013 254.701 37.0267 254.701 35.16V25.304C254.701 23.4747 254.085 21.7947 252.853 20.264C251.621 18.7333 250.202 17.968 248.597 17.968C246.879 17.968 245.517 18.696 244.509 20.152C243.501 21.5707 242.978 23.5867 242.941 26.2C242.866 28.328 243.071 30.512 243.557 32.752C244.079 34.992 244.901 36.952 246.021 38.632C247.178 40.2747 248.485 41.1147 249.941 41.152ZM282.869 43.56C278.426 43.56 274.749 42.1973 271.837 39.472C268.962 36.7093 267.525 33.3493 267.525 29.392C267.525 25.3973 268.944 22.0933 271.781 19.48C274.618 16.8667 278.034 15.56 282.029 15.56C286.322 15.56 289.906 16.9227 292.781 19.648C295.656 22.336 297.093 25.6773 297.093 29.672C297.093 33.6667 295.73 36.9893 293.005 39.64C290.317 42.2533 286.938 43.56 282.869 43.56ZM283.877 41.096C285.408 41.096 286.584 40.3867 287.405 38.968C288.264 37.5493 288.693 35.552 288.693 32.976C288.693 30.848 288.376 28.664 287.741 26.424C287.144 24.1467 286.229 22.1867 284.997 20.544C283.765 18.864 282.402 18.024 280.909 18.024C277.474 18.024 275.757 20.7493 275.757 26.2C275.757 28.216 276.056 30.344 276.653 32.584C277.288 34.824 278.24 36.8027 279.509 38.52C280.816 40.2373 282.272 41.096 283.877 41.096Z" fill="#D3424B"/>
</svg>
