<svg width="100" height="118" viewBox="0 0 100 118" fill="none"
  xmlns="http://www.w3.org/2000/svg">
  <path d="M97.6608 22.6336L97.6613 22.6337C97.8609 22.6883 98.0001 22.8701 98.0001 23.0782V48.2248C98.0001 73.4383 86.3881 90.094 76.6332 99.6516L76.6331 99.6517C71.3776 104.801 65.6875 108.799 60.7742 111.501C58.3179 112.852 56.0789 113.866 54.2078 114.537C52.2925 115.224 50.9089 115.499 50.113 115.499C49.317 115.499 47.9333 115.224 46.0179 114.537C44.1468 113.866 41.9077 112.852 39.4514 111.501C34.538 108.799 28.8479 104.801 23.5925 99.6517L23.5924 99.6516C13.8372 90.0937 2.22461 73.4381 2.22461 48.2248V23.0784C2.22461 22.87 2.36382 22.6883 2.56332 22.6337L2.56381 22.6336C19.2913 18.0505 34.7722 11.4842 49.8787 2.56614L49.879 2.56595C50.0234 2.48067 50.2024 2.48052 50.3473 2.56609C65.0345 11.2376 81.3904 18.1754 97.6608 22.6336Z" fill="#BE97DD" stroke="black" stroke-width="4"/>
  <g style="mix-blend-mode:multiply">
    <circle cx="49.9479" cy="56.0749" r="30.7116" fill="#fff"/>
  </g>
  <mask id="mask0" mask-type="alpha" maskUnits="userSpaceOnUse" x="19" y="25" width="62" height="62">
    <circle cx="49.9479" cy="56.0749" r="28.7116" fill="#FFFEF7" stroke="black" stroke-width="4"/>
  </mask>
  <g mask="url(#mask0)">
    <circle cx="49.9477" cy="44.7626" r="11.6997" fill="#FFFEF7" stroke="black" stroke-width="4"/>
    <circle cx="49.9478" cy="91.1739" r="27.7867" fill="#FFFEF7" stroke="black" stroke-width="4"/>
  </g>
  <g style="mix-blend-mode:multiply">
    <circle cx="49.9479" cy="56.0749" r="30.7116" stroke="black" stroke-width="4"/>
  </g>
</svg>
