<svg width="91" height="105" viewBox="0 0 91 105" fill="none" xmlns="http://www.w3.org/2000/svg">
<path d="M88.6037 19.096L88.6039 19.096C89.136 19.2409 89.5 19.7201 89.5 20.2613V42.8295C89.5 65.7269 78.8933 80.867 69.987 89.5491L70.685 90.2652L69.987 89.5491C65.1906 94.2251 59.9981 97.8559 55.5066 100.313C53.2611 101.542 51.2024 102.471 49.4672 103.09C47.7101 103.717 46.358 104 45.5006 104C44.6431 104 43.2909 103.717 41.5338 103.09C39.7986 102.471 37.7398 101.542 35.4943 100.313C31.0028 97.8559 25.8102 94.2251 21.0139 89.5491L20.3158 90.2652L21.0138 89.5491C12.1073 80.8668 1.5 65.7266 1.5 42.8295V20.2615C1.5 19.72 1.86407 19.2409 2.39606 19.096L2.3963 19.096C17.4149 15.0019 31.313 9.137 44.8786 1.16911L44.8787 1.16902C45.2622 0.943687 45.7388 0.94361 46.1226 1.16909C59.31 8.91572 73.9973 15.114 88.6037 19.096Z" stroke="#292F40" stroke-width="2"/>
<circle cx="45.2116" cy="51.7116" r="30.7116" fill="#BE97DD"/>
<path d="M58.8334 67V63.6667C58.8334 61.8986 58.131 60.2029 56.8808 58.9526C55.6305 57.7024 53.9349 57 52.1667 57H38.8334C37.0653 57 35.3696 57.7024 34.1194 58.9526C32.8691 60.2029 32.1667 61.8986 32.1667 63.6667V67" fill="white"/>
<path d="M58.8334 67V63.6667C58.8334 61.8986 58.131 60.2029 56.8808 58.9526C55.6305 57.7024 53.9349 57 52.1667 57H38.8334C37.0653 57 35.3696 57.7024 34.1194 58.9526C32.8691 60.2029 32.1667 61.8986 32.1667 63.6667V67H58.8334Z" stroke="#292F40" stroke-width="2" stroke-linecap="round" stroke-linejoin="round"/>
<path d="M45.4999 50.3333C49.1818 50.3333 52.1666 47.3486 52.1666 43.6667C52.1666 39.9848 49.1818 37 45.4999 37C41.818 37 38.8333 39.9848 38.8333 43.6667C38.8333 47.3486 41.818 50.3333 45.4999 50.3333Z" fill="white" stroke="#292F40" stroke-width="2" stroke-linecap="round" stroke-linejoin="round"/>
</svg>
