<svg width="335" height="267" viewBox="0 0 335 267" fill="none" xmlns="http://www.w3.org/2000/svg">
<rect x="83" y="174" width="12" height="91" rx="2" fill="#E3D2F0" stroke="#3B096D" stroke-width=""/>
<rect x="321" y="174" width="12" height="91" rx="2" fill="#E3D2F0" stroke="#3B096D" stroke-width="2"/>
<rect x="2" y="156" width="73" height="17" rx="2" fill="#E3D2F0" stroke="#3B096D" stroke-width="2"/>
<rect x="260" y="156" width="73" height="17" rx="2" fill="#E3D2F0" stroke="#3B096D" stroke-width="2"/>
<rect x="2" y="2" width="12" height="154" rx="2" fill="#E3D2F0" stroke="#3B096D" stroke-width="2"/>
<rect x="2" y="174" width="12" height="91" rx="2" fill="#E3D2F0" stroke="#3B096D" stroke-width="2"/>
<rect x="240" y="174" width="12" height="91" rx="2" fill="#E3D2F0" stroke="#3B096D" stroke-width="2"/>
<rect x="321" y="2" width="12" height="154" rx="2" fill="#E3D2F0" stroke="#3B096D" stroke-width="2"/>
<rect x="203.938" y="52.5645" width="5.125" height="13.4531" fill="#612D8A"/>
<mask id="path-10-inside-1" fill="white">
<path fill-rule="evenodd" clip-rule="evenodd" d="M217.391 20.4652C217.391 20.1279 217.047 19.9113 216.733 20.0354L198.577 27.2196C198.332 27.3163 198.172 27.5525 198.172 27.8153V36.1322C198.172 41.3587 202.409 45.5956 207.635 45.5956H207.927C213.154 45.5956 217.391 41.3587 217.391 36.1322V20.4652Z"/>
</mask>
<path fill-rule="evenodd" clip-rule="evenodd" d="M217.391 20.4652C217.391 20.1279 217.047 19.9113 216.733 20.0354L198.577 27.2196C198.332 27.3163 198.172 27.5525 198.172 27.8153V36.1322C198.172 41.3587 202.409 45.5956 207.635 45.5956H207.927C213.154 45.5956 217.391 41.3587 217.391 36.1322V20.4652Z" fill="#AA2C34"/>
<path d="M198.577 27.2196L200.049 30.939L198.577 27.2196ZM218.205 23.7548L200.049 30.939L197.105 23.5002L215.262 16.3159L218.205 23.7548ZM202.172 27.8153V36.1322H194.172V27.8153H202.172ZM202.172 36.1322C202.172 39.1496 204.618 41.5956 207.635 41.5956V49.5956C200.2 49.5956 194.172 43.5678 194.172 36.1322H202.172ZM207.635 41.5956H207.927V49.5956H207.635V41.5956ZM207.927 41.5956C210.945 41.5956 213.391 39.1496 213.391 36.1322H221.391C221.391 43.5678 215.363 49.5956 207.927 49.5956V41.5956ZM213.391 36.1322V20.4652H221.391V36.1322H213.391ZM200.049 30.939C201.33 30.4319 202.172 29.1935 202.172 27.8153H194.172C194.172 25.9114 195.335 24.2007 197.105 23.5002L200.049 30.939ZM215.262 16.3159C217.992 15.2357 221.391 17.0831 221.391 20.4652H213.391C213.391 23.1727 216.102 24.5868 218.205 23.7548L215.262 16.3159Z" fill="#612D8A" mask="url(#path-10-inside-1)"/>
<mask id="path-12-inside-2" fill="white">
<path fill-rule="evenodd" clip-rule="evenodd" d="M194.969 65.377C194.969 63.6079 196.403 62.1738 198.172 62.1738H214.828C216.597 62.1738 218.031 63.6079 218.031 65.377V77.2533C223.445 80.9433 227 87.159 227 94.2051C227 97.1703 226.37 99.9884 225.238 102.533H187.762C186.63 99.9884 186 97.1703 186 94.2051C186 87.159 189.555 80.9433 194.969 77.2533V65.377Z"/>
</mask>
<path fill-rule="evenodd" clip-rule="evenodd" d="M194.969 65.377C194.969 63.6079 196.403 62.1738 198.172 62.1738H214.828C216.597 62.1738 218.031 63.6079 218.031 65.377V77.2533C223.445 80.9433 227 87.159 227 94.2051C227 97.1703 226.37 99.9884 225.238 102.533H187.762C186.63 99.9884 186 97.1703 186 94.2051C186 87.159 189.555 80.9433 194.969 77.2533V65.377Z" fill="#624C67"/>
<path d="M218.031 77.2533H214.031V79.3678L215.778 80.5586L218.031 77.2533ZM225.238 102.533V106.533H227.836L228.892 104.16L225.238 102.533ZM187.762 102.533L184.108 104.16L185.164 106.533H187.762V102.533ZM194.969 77.2533L197.222 80.5586L198.969 79.3678V77.2533H194.969ZM198.172 58.1738C194.194 58.1738 190.969 61.3988 190.969 65.377H198.969C198.969 65.8171 198.612 66.1738 198.172 66.1738V58.1738ZM214.828 58.1738H198.172V66.1738H214.828V58.1738ZM222.031 65.377C222.031 61.3988 218.806 58.1738 214.828 58.1738V66.1738C214.388 66.1738 214.031 65.8171 214.031 65.377H222.031ZM222.031 77.2533V65.377H214.031V77.2533H222.031ZM231 94.2051C231 85.7806 226.744 78.3512 220.284 73.948L215.778 80.5586C220.146 83.5354 223 88.5375 223 94.2051H231ZM228.892 104.16C230.248 101.113 231 97.7415 231 94.2051H223C223 96.5991 222.493 98.8639 221.583 100.907L228.892 104.16ZM187.762 106.533H225.238V98.5332H187.762V106.533ZM182 94.2051C182 97.7415 182.752 101.113 184.108 104.16L191.417 100.907C190.507 98.8639 190 96.5991 190 94.2051H182ZM192.716 73.948C186.256 78.3512 182 85.7806 182 94.2051H190C190 88.5375 192.854 83.5354 197.222 80.5586L192.716 73.948ZM190.969 65.377V77.2533H198.969V65.377H190.969Z" fill="#612D8A" mask="url(#path-12-inside-2)"/>
<mask id="path-14-inside-3" fill="white">
<path fill-rule="evenodd" clip-rule="evenodd" d="M190.621 24.2739L222.516 36.894V41.7518C222.516 50.5969 215.345 57.7674 206.5 57.7674C197.655 57.7674 190.484 50.5969 190.484 41.7518V26.3768C190.484 25.664 190.531 24.9621 190.621 24.2739Z"/>
</mask>
<path fill-rule="evenodd" clip-rule="evenodd" d="M190.621 24.2739L222.516 36.894V41.7518C222.516 50.5969 215.345 57.7674 206.5 57.7674C197.655 57.7674 190.484 50.5969 190.484 41.7518V26.3768C190.484 25.664 190.531 24.9621 190.621 24.2739Z" fill="#BE97DD"/>
<path d="M190.621 24.2739L192.093 20.5545L187.322 18.6669L186.655 23.7538L190.621 24.2739ZM222.516 36.894H226.516V34.175L223.987 33.1746L222.516 36.894ZM189.149 27.9933L221.044 40.6134L223.987 33.1746L192.093 20.5545L189.149 27.9933ZM218.516 36.894V41.7518H226.516V36.894H218.516ZM218.516 41.7518C218.516 48.3878 213.136 53.7674 206.5 53.7674V61.7674C217.554 61.7674 226.516 52.8061 226.516 41.7518H218.516ZM206.5 53.7674C199.864 53.7674 194.484 48.3878 194.484 41.7518H186.484C186.484 52.8061 195.446 61.7674 206.5 61.7674V53.7674ZM194.484 41.7518V26.3768H186.484V41.7518H194.484ZM194.484 26.3768C194.484 25.8384 194.52 25.3102 194.587 24.7941L186.655 23.7538C186.542 24.6139 186.484 25.4896 186.484 26.3768H194.484Z" fill="#612D8A" mask="url(#path-14-inside-3)"/>
<path d="M113.259 75.4158C113.555 72.8977 115.689 71 118.225 71H203.775C206.311 71 208.445 72.8977 208.741 75.4158L211.094 95.4158C211.444 98.3883 209.121 101 206.128 101H115.872C112.879 101 110.556 98.3883 110.906 95.4158L113.259 75.4158Z" fill="white" stroke="#612D8A" stroke-width="4"/>
<path d="M127.588 89.8379C127.7 90.0059 127.835 90.1506 127.994 90.2719C128.162 90.3839 128.293 90.4726 128.386 90.5379C128.479 90.6033 128.526 90.6779 128.526 90.7619V90.8039C128.526 90.9346 128.428 90.9999 128.232 90.9999H125.796C125.6 90.9999 125.502 90.9346 125.502 90.8039V90.7619C125.502 90.6873 125.553 90.6033 125.656 90.5099C125.759 90.4166 125.829 90.3326 125.866 90.2579C125.913 90.1833 125.889 90.0433 125.796 89.8379L124.018 87.1779H123.892L122.226 87.2059V89.8379C122.226 90.0433 122.319 90.2299 122.506 90.3979C122.702 90.5566 122.8 90.6779 122.8 90.7619V90.8039C122.8 90.9346 122.697 90.9999 122.492 90.9999H120.294C120.098 90.9999 120 90.9346 120 90.8039V90.7619C120 90.6779 120.084 90.5566 120.252 90.3979C120.429 90.2299 120.518 90.0433 120.518 89.8379V82.2219C120.518 82.0166 120.429 81.8346 120.252 81.6759C120.084 81.5079 120 81.3819 120 81.2979V81.2559C120 81.1253 120.098 81.0599 120.294 81.0599H123.458C124.737 81.0599 125.759 81.3259 126.524 81.8579C127.289 82.3806 127.677 83.1506 127.686 84.1679C127.686 84.7653 127.504 85.3113 127.14 85.8059C126.785 86.2913 126.272 86.6553 125.6 86.8979L127.588 89.8379ZM123.696 86.4779C124.377 86.4779 124.923 86.2959 125.334 85.9319C125.745 85.5679 125.95 85.0499 125.95 84.3779C125.95 83.5566 125.693 82.9173 125.18 82.4599C124.676 82.0026 124.065 81.7739 123.346 81.7739H122.646C122.366 81.7739 122.226 81.9606 122.226 82.3339V85.6799C122.226 86.2119 122.455 86.4779 122.912 86.4779H123.696Z" fill="#612D8A"/>
<path d="M129.618 90.9999C129.413 90.9999 129.31 90.9346 129.31 90.8039V90.7619C129.31 90.6779 129.399 90.5566 129.576 90.3979C129.754 90.2299 129.842 90.0386 129.842 89.8239V82.2359C129.842 82.0213 129.754 81.8299 129.576 81.6619C129.399 81.4939 129.31 81.3726 129.31 81.2979V81.2559C129.31 81.1253 129.404 81.0599 129.59 81.0599H135.68C135.904 81.0599 136.035 81.1766 136.072 81.4099L136.408 82.9219C136.455 83.1366 136.38 83.2439 136.184 83.2439H136.114C135.993 83.2439 135.858 83.1693 135.708 83.0199C135.568 82.8613 135.438 82.6886 135.316 82.5019C135.204 82.3153 135.06 82.1473 134.882 81.9979C134.714 81.8393 134.537 81.7599 134.35 81.7599H131.998C131.681 81.7599 131.522 81.9419 131.522 82.3059V85.5679H133.678C133.818 85.5679 133.94 85.5213 134.042 85.4279C134.145 85.3253 134.22 85.2179 134.266 85.1059C134.322 84.9939 134.383 84.8913 134.448 84.7979C134.523 84.6953 134.593 84.6439 134.658 84.6439H134.742C134.882 84.6439 134.952 84.7326 134.952 84.9099V86.8979C134.952 87.0753 134.882 87.1639 134.742 87.1639H134.658C134.593 87.1639 134.523 87.1173 134.448 87.0239C134.383 86.9306 134.322 86.8326 134.266 86.7299C134.22 86.6179 134.145 86.5153 134.042 86.4219C133.94 86.3286 133.818 86.2819 133.678 86.2819H131.522L131.508 89.5579C131.508 89.7633 131.56 89.9406 131.662 90.0899C131.774 90.2299 131.933 90.2999 132.138 90.2999H134.784C134.971 90.2999 135.148 90.2206 135.316 90.0619C135.484 89.9033 135.62 89.7259 135.722 89.5299C135.825 89.3339 135.946 89.1566 136.086 88.9979C136.226 88.8393 136.362 88.7599 136.492 88.7599H136.59C136.665 88.7599 136.721 88.7926 136.758 88.8579C136.805 88.9233 136.819 88.9979 136.8 89.0819L136.478 90.6359C136.422 90.8786 136.287 90.9999 136.072 90.9999H129.618Z" fill="#612D8A"/>
<path d="M141.552 91.1399C140.292 91.1399 139.303 90.8739 138.584 90.3419C137.865 89.8006 137.506 89.2359 137.506 88.6479C137.506 88.4426 137.567 88.2746 137.688 88.1439C137.809 88.0039 137.977 87.9386 138.192 87.9479C138.388 87.9573 138.561 88.0273 138.71 88.1579C138.859 88.2793 138.976 88.4333 139.06 88.6199C139.153 88.8066 139.265 89.0073 139.396 89.2219C139.536 89.4366 139.685 89.6373 139.844 89.8239C140.012 90.0106 140.245 90.1646 140.544 90.2859C140.852 90.4073 141.211 90.4679 141.622 90.4679C142.191 90.4679 142.653 90.3139 143.008 90.0059C143.363 89.6979 143.54 89.2919 143.54 88.7879C143.54 88.3586 143.433 88.0039 143.218 87.7239C143.003 87.4439 142.723 87.2386 142.378 87.1079C142.042 86.9773 141.664 86.8699 141.244 86.7859C140.833 86.6926 140.418 86.5899 139.998 86.4779C139.587 86.3566 139.209 86.2026 138.864 86.0159C138.528 85.8293 138.253 85.5446 138.038 85.1619C137.823 84.7793 137.716 84.3033 137.716 83.7339C137.716 82.9219 138.038 82.2546 138.682 81.7319C139.326 81.1999 140.208 80.9339 141.328 80.9339C142.448 80.9339 143.353 81.1813 144.044 81.6759C144.744 82.1613 145.089 82.6979 145.08 83.2859C145.08 83.7619 144.837 83.9999 144.352 83.9999C144.147 83.9999 143.969 83.9439 143.82 83.8319C143.68 83.7106 143.573 83.5613 143.498 83.3839C143.423 83.2066 143.325 83.0153 143.204 82.8099C143.092 82.5953 142.966 82.3993 142.826 82.2219C142.695 82.0446 142.495 81.8999 142.224 81.7879C141.963 81.6666 141.65 81.6059 141.286 81.6059C140.698 81.6059 140.241 81.7646 139.914 82.0819C139.587 82.3993 139.424 82.7959 139.424 83.2719C139.424 83.6826 139.531 84.0233 139.746 84.2939C139.961 84.5553 140.236 84.7513 140.572 84.8819C140.917 85.0126 141.295 85.1293 141.706 85.2319C142.126 85.3253 142.541 85.4373 142.952 85.5679C143.372 85.6893 143.75 85.8479 144.086 86.0439C144.431 86.2399 144.711 86.5293 144.926 86.9119C145.141 87.2946 145.248 87.7659 145.248 88.3259C145.248 89.1846 144.889 89.8706 144.17 90.3839C143.451 90.8879 142.579 91.1399 141.552 91.1399Z" fill="#612D8A"/>
<path d="M146.722 90.9999C146.516 90.9999 146.414 90.9346 146.414 90.8039V90.7619C146.414 90.6779 146.502 90.5566 146.68 90.3979C146.857 90.2299 146.946 90.0386 146.946 89.8239V82.2359C146.946 82.0213 146.857 81.8299 146.68 81.6619C146.502 81.4939 146.414 81.3726 146.414 81.2979V81.2559C146.414 81.1253 146.507 81.0599 146.694 81.0599H152.784C153.008 81.0599 153.138 81.1766 153.176 81.4099L153.512 82.9219C153.558 83.1366 153.484 83.2439 153.288 83.2439H153.218C153.096 83.2439 152.961 83.1693 152.812 83.0199C152.672 82.8613 152.541 82.6886 152.42 82.5019C152.308 82.3153 152.163 82.1473 151.986 81.9979C151.818 81.8393 151.64 81.7599 151.454 81.7599H149.102C148.784 81.7599 148.626 81.9419 148.626 82.3059V85.5679H150.782C150.922 85.5679 151.043 85.5213 151.146 85.4279C151.248 85.3253 151.323 85.2179 151.37 85.1059C151.426 84.9939 151.486 84.8913 151.552 84.7979C151.626 84.6953 151.696 84.6439 151.762 84.6439H151.846C151.986 84.6439 152.056 84.7326 152.056 84.9099V86.8979C152.056 87.0753 151.986 87.1639 151.846 87.1639H151.762C151.696 87.1639 151.626 87.1173 151.552 87.0239C151.486 86.9306 151.426 86.8326 151.37 86.7299C151.323 86.6179 151.248 86.5153 151.146 86.4219C151.043 86.3286 150.922 86.2819 150.782 86.2819H148.626L148.612 89.5579C148.612 89.7633 148.663 89.9406 148.766 90.0899C148.878 90.2299 149.036 90.2999 149.242 90.2999H151.888C152.074 90.2999 152.252 90.2206 152.42 90.0619C152.588 89.9033 152.723 89.7259 152.826 89.5299C152.928 89.3339 153.05 89.1566 153.19 88.9979C153.33 88.8393 153.465 88.7599 153.596 88.7599H153.694C153.768 88.7599 153.824 88.7926 153.862 88.8579C153.908 88.9233 153.922 88.9979 153.904 89.0819L153.582 90.6359C153.526 90.8786 153.39 90.9999 153.176 90.9999H146.722Z" fill="#612D8A"/>
<path d="M162.52 89.8379C162.632 90.0059 162.767 90.1506 162.926 90.2719C163.094 90.3839 163.224 90.4726 163.318 90.5379C163.411 90.6033 163.458 90.6779 163.458 90.7619V90.8039C163.458 90.9346 163.36 90.9999 163.164 90.9999H160.728C160.532 90.9999 160.434 90.9346 160.434 90.8039V90.7619C160.434 90.6873 160.485 90.6033 160.588 90.5099C160.69 90.4166 160.76 90.3326 160.798 90.2579C160.844 90.1833 160.821 90.0433 160.728 89.8379L158.95 87.1779H158.824L157.158 87.2059V89.8379C157.158 90.0433 157.251 90.2299 157.438 90.3979C157.634 90.5566 157.732 90.6779 157.732 90.7619V90.8039C157.732 90.9346 157.629 90.9999 157.424 90.9999H155.226C155.03 90.9999 154.932 90.9346 154.932 90.8039V90.7619C154.932 90.6779 155.016 90.5566 155.184 90.3979C155.361 90.2299 155.45 90.0433 155.45 89.8379V82.2219C155.45 82.0166 155.361 81.8346 155.184 81.6759C155.016 81.5079 154.932 81.3819 154.932 81.2979V81.2559C154.932 81.1253 155.03 81.0599 155.226 81.0599H158.39C159.668 81.0599 160.69 81.3259 161.456 81.8579C162.221 82.3806 162.608 83.1506 162.618 84.1679C162.618 84.7653 162.436 85.3113 162.072 85.8059C161.717 86.2913 161.204 86.6553 160.532 86.8979L162.52 89.8379ZM158.628 86.4779C159.309 86.4779 159.855 86.2959 160.266 85.9319C160.676 85.5679 160.882 85.0499 160.882 84.3779C160.882 83.5566 160.625 82.9173 160.112 82.4599C159.608 82.0026 158.996 81.7739 158.278 81.7739H157.578C157.298 81.7739 157.158 81.9606 157.158 82.3339V85.6799C157.158 86.2119 157.386 86.4779 157.844 86.4779H158.628Z" fill="#612D8A"/>
<path d="M172.749 81.0599C172.945 81.0599 173.043 81.1253 173.043 81.2559V81.2979C173.043 81.3819 172.945 81.5033 172.749 81.6619C172.562 81.8113 172.422 81.9979 172.329 82.2219L168.843 90.5239C168.703 90.8413 168.479 90.9999 168.171 90.9999C167.91 90.9999 167.709 90.8506 167.569 90.5519L163.747 82.2359C163.654 82.0213 163.514 81.8346 163.327 81.6759C163.14 81.5173 163.047 81.3913 163.047 81.2979V81.2559C163.047 81.1253 163.15 81.0599 163.355 81.0599H165.917C166.122 81.0599 166.225 81.1253 166.225 81.2559V81.2979C166.225 81.3633 166.183 81.4333 166.099 81.5079C166.024 81.5733 165.945 81.6339 165.861 81.6899C165.786 81.7366 165.721 81.8113 165.665 81.9139C165.618 82.0073 165.623 82.1146 165.679 82.2359L168.605 89.1519L171.363 82.2219C171.41 82.1006 171.405 81.9933 171.349 81.8999C171.302 81.7973 171.232 81.7226 171.139 81.6759C171.055 81.6199 170.971 81.5593 170.887 81.4939C170.812 81.4286 170.775 81.3633 170.775 81.2979V81.2559C170.775 81.1253 170.873 81.0599 171.069 81.0599H172.749Z" fill="#612D8A"/>
<path d="M180.715 89.8379C180.799 90.0433 180.939 90.2253 181.135 90.3839C181.331 90.5426 181.429 90.6686 181.429 90.7619V90.8039C181.429 90.9346 181.331 90.9999 181.135 90.9999H178.643C178.447 90.9999 178.349 90.9346 178.349 90.8039V90.7619C178.349 90.6873 178.405 90.6079 178.517 90.5239C178.639 90.4399 178.741 90.3466 178.825 90.2439C178.919 90.1319 178.933 89.9966 178.867 89.8379L178.321 88.4519H174.093L173.575 89.8379C173.51 89.9966 173.519 90.1319 173.603 90.2439C173.697 90.3466 173.799 90.4399 173.911 90.5239C174.033 90.6079 174.093 90.6873 174.093 90.7619V90.8039C174.093 90.9346 173.991 90.9999 173.785 90.9999H172.203C172.007 90.9999 171.909 90.9346 171.909 90.8039V90.7619C171.909 90.6686 172.007 90.5473 172.203 90.3979C172.399 90.2393 172.539 90.0526 172.623 89.8379L175.563 82.2919C175.629 82.1146 175.568 81.9186 175.381 81.7039C175.195 81.4893 175.101 81.3539 175.101 81.2979V81.2559C175.101 81.1253 175.181 81.0599 175.339 81.0599H176.445C176.809 81.0599 177.061 81.2373 177.201 81.5919L180.715 89.8379ZM174.373 87.6959H178.027L176.151 82.9079L174.373 87.6959Z" fill="#612D8A"/>
<path d="M182.433 90.9999C182.227 90.9999 182.125 90.9346 182.125 90.8039V90.7619C182.125 90.6779 182.213 90.5566 182.391 90.3979C182.568 90.2299 182.657 90.0433 182.657 89.8379V82.2219C182.657 82.0166 182.568 81.8346 182.391 81.6759C182.213 81.5079 182.125 81.3819 182.125 81.2979V81.2559C182.125 81.1253 182.227 81.0599 182.433 81.0599H185.513C187.23 81.0599 188.639 81.5313 189.741 82.4739C190.851 83.4073 191.407 84.5786 191.407 85.9879C191.407 87.5093 190.912 88.7273 189.923 89.6419C188.943 90.5473 187.683 90.9999 186.143 90.9999H182.433ZM185.163 90.2859H186.045C187.109 90.2859 187.977 89.9546 188.649 89.2919C189.33 88.6293 189.671 87.7379 189.671 86.6179C189.671 85.2273 189.241 84.0746 188.383 83.1599C187.524 82.2359 186.46 81.7739 185.191 81.7739H184.799C184.481 81.7739 184.323 81.9466 184.323 82.2919V89.2919C184.323 89.6093 184.397 89.8566 184.547 90.0339C184.696 90.2019 184.901 90.2859 185.163 90.2859Z" fill="#612D8A"/>
<path d="M197.343 91.1399C195.896 91.1399 194.706 90.6406 193.773 89.6419C192.839 88.6339 192.373 87.4299 192.373 86.0299C192.373 84.5459 192.83 83.3233 193.745 82.3619C194.659 81.4006 195.835 80.9199 197.273 80.9199C198.701 80.9199 199.867 81.4286 200.773 82.4459C201.687 83.4539 202.145 84.6673 202.145 86.0859C202.145 87.5139 201.683 88.7133 200.759 89.6839C199.835 90.6546 198.696 91.1399 197.343 91.1399ZM197.791 90.3839C198.575 90.3839 199.219 90.0853 199.723 89.4879C200.227 88.8906 200.479 88.1673 200.479 87.3179C200.479 85.7313 200.124 84.3966 199.415 83.3139C198.705 82.2219 197.795 81.6759 196.685 81.6759C195.891 81.6759 195.252 81.9653 194.767 82.5439C194.281 83.1133 194.039 83.8553 194.039 84.7699C194.039 86.3473 194.389 87.6773 195.089 88.7599C195.789 89.8426 196.689 90.3839 197.791 90.3839Z" fill="#612D8A"/>
<path d="M35 129.6C35 124.63 35.0012 121.008 35.2083 118.143C35.4139 115.298 35.815 113.355 36.5371 111.722C38.3488 107.624 41.6238 104.349 45.7218 102.537C47.355 101.815 49.2983 101.414 52.1435 101.208C55.0082 101.001 58.6297 101 63.6 101H271.4C276.37 101 279.992 101.001 282.857 101.208C285.702 101.414 287.645 101.815 289.278 102.537C293.376 104.349 296.651 107.624 298.463 111.722C299.185 113.355 299.586 115.298 299.792 118.143C299.999 121.008 300 124.63 300 129.6V220H35V129.6Z" fill="#BE97DD" stroke="#612D8A" stroke-width="4"/>
</svg>
