<svg width="22" height="20" viewBox="0 0 22 20" fill="none" xmlns="http://www.w3.org/2000/svg">
<path fill-rule="evenodd" clip-rule="evenodd" d="M9.98915 0.0536504C6.97889 0.370987 4.29907 1.98482 2.62982 4.4856C0.624355 7.49004 0.384337 11.3749 2.00604 14.5819C2.8042 16.1603 3.93517 17.4503 5.3823 18.4329C6.38015 19.1105 8.13111 19.8282 9.09964 19.9567L9.4259 20V16.4831V12.9661H8.1799H6.9339V11.5234V10.0807H8.17327H9.41265L9.44209 8.45759C9.4739 6.70512 9.50767 6.49914 9.88541 5.75246C10.4224 4.69093 11.5043 4.03672 12.8818 3.94058C13.4094 3.90379 14.7467 3.98688 15.2516 4.08787L15.4592 4.12938V5.40292V6.67653L14.5574 6.66217C13.5254 6.64577 13.2821 6.72158 12.9066 7.1769C12.6147 7.53076 12.5745 7.74914 12.5741 8.98222L12.5737 10.0807H13.9508H15.328V10.24C15.328 10.3277 15.2395 10.9642 15.1313 11.6546C15.0231 12.3449 14.9345 12.9372 14.9345 12.9707C14.9345 13.0061 14.4385 13.0317 13.7541 13.0317H12.5737V16.5159V20L12.8999 19.9567C13.474 19.8806 14.5522 19.5267 15.3002 19.1689C17.3844 18.1719 18.9781 16.6095 20.0122 14.5495C21.6135 11.3598 21.3656 7.47561 19.3698 4.4856C17.3045 1.39146 13.6549 -0.332806 9.98915 0.0536504Z" fill="white"/>
</svg>
