<svg width="20" height="21" viewBox="0 0 20 21" fill="none" xmlns="http://www.w3.org/2000/svg">
<g clip-path="url(#clip0)">
<path d="M4.43242 12.586L3.73625 15.1849L1.19176 15.2388C0.431328 13.8283 0 12.2146 0 10.4998C0 8.84154 0.403281 7.27779 1.11812 5.90088H1.11867L3.38398 6.31619L4.37633 8.56791C4.16863 9.17342 4.05543 9.82342 4.05543 10.4998C4.05551 11.2338 4.18848 11.9372 4.43242 12.586Z" fill="#FBBB00"/>
<path d="M19.8252 8.63184C19.94 9.23676 19.9999 9.86148 19.9999 10.5C19.9999 11.2159 19.9246 11.9143 19.7812 12.5879C19.2944 14.8802 18.0224 16.8818 16.2604 18.2983L16.2598 18.2978L13.4065 18.1522L13.0027 15.6313C14.1719 14.9456 15.0857 13.8725 15.567 12.5879H10.2197V8.63184H15.645H19.8252Z" fill="#518EF8"/>
<path d="M16.2605 18.2975L16.2611 18.298C14.5473 19.6755 12.3704 20.4996 10.0006 20.4996C6.19238 20.4996 2.88141 18.3711 1.19238 15.2387L4.43305 12.5859C5.27754 14.8398 7.45172 16.4442 10.0006 16.4442C11.0962 16.4442 12.1226 16.148 13.0034 15.631L16.2605 18.2975Z" fill="#28B446"/>
<path d="M16.383 2.80219L13.1434 5.45437C12.2319 4.88461 11.1544 4.55547 10 4.55547C7.39344 4.55547 5.17859 6.23348 4.37641 8.56812L1.11871 5.90109H1.11816C2.78246 2.6923 6.1352 0.5 10 0.5C12.4264 0.5 14.6511 1.3643 16.383 2.80219Z" fill="#F14336"/>
</g>
<defs>
<clipPath id="clip0">
<rect width="20" height="20" fill="white" transform="translate(0 0.5)"/>
</clipPath>
</defs>
</svg>
