<svg width="135" height="27" viewBox="0 0 135 27" fill="none" xmlns="http://www.w3.org/2000/svg">
<rect x="112" y="3" width="21" height="18" rx="2" fill="#9A66CD"/>
<path d="M120.03 17.64C118.677 17.64 117.622 17.262 116.866 16.506C116.11 15.7407 115.732 14.6487 115.732 13.23V7.7H117.552V13.16C117.552 15.0827 118.383 16.044 120.044 16.044C121.696 16.044 122.522 15.0827 122.522 13.16V7.7H124.314V13.23C124.314 14.6487 123.936 15.7407 123.18 16.506C122.433 17.262 121.383 17.64 120.03 17.64ZM126.863 7.7H128.683V17.5H126.863V7.7Z" fill="white"/>
<path d="M12.4909 18.08C12.6643 18.3467 12.8709 18.58 13.1109 18.78C13.3643 18.9667 13.5643 19.12 13.7109 19.24C13.8576 19.3467 13.9309 19.4667 13.9309 19.6V19.66C13.9309 19.8867 13.7776 20 13.4709 20H9.29094C8.9976 20 8.85094 19.8867 8.85094 19.66V19.6C8.85094 19.48 8.92427 19.3467 9.07094 19.2C9.23094 19.04 9.3376 18.9 9.39094 18.78C9.4576 18.6467 9.42427 18.4133 9.29094 18.08L7.19094 14.6L4.99094 14.64V18.08C4.99094 18.3867 5.13094 18.6867 5.41094 18.98C5.70427 19.26 5.85094 19.4667 5.85094 19.6V19.66C5.85094 19.8867 5.69094 20 5.37094 20H1.61094C1.3176 20 1.17094 19.8867 1.17094 19.66V19.6C1.17094 19.4667 1.2976 19.26 1.55094 18.98C1.80427 18.6867 1.93094 18.3867 1.93094 18.08V7.72C1.93094 7.41333 1.80427 7.12 1.55094 6.84C1.2976 6.54667 1.17094 6.33333 1.17094 6.2V6.12C1.17094 5.90667 1.3176 5.8 1.61094 5.8H6.55094C8.40427 5.8 9.87094 6.18 10.9509 6.94C12.0443 7.7 12.5976 8.81333 12.6109 10.28C12.6109 11.0933 12.3709 11.8467 11.8909 12.54C11.4243 13.22 10.7509 13.7467 9.87094 14.12L12.4909 18.08ZM6.11094 13.42H6.97094C7.73094 13.42 8.3376 13.1867 8.79094 12.72C9.2576 12.24 9.49094 11.54 9.49094 10.62C9.49094 9.52667 9.17094 8.65333 8.53094 8C7.90427 7.34667 7.1776 7.02 6.35094 7.02H5.67094C5.2176 7.02 4.99094 7.32 4.99094 7.92V12.08C4.99094 12.56 5.0776 12.9067 5.25094 13.12C5.4376 13.32 5.72427 13.42 6.11094 13.42ZM22.0955 16.96C22.2155 16.8 22.3621 16.7467 22.5355 16.8C22.7088 16.8533 22.7888 16.98 22.7755 17.18C22.7088 17.8733 22.3088 18.5533 21.5755 19.22C20.8421 19.8733 19.8888 20.2 18.7155 20.2C17.3021 20.2 16.1421 19.7333 15.2355 18.8C14.3288 17.8667 13.8755 16.64 13.8755 15.12C13.8755 13.6933 14.3488 12.52 15.2955 11.6C16.2421 10.6667 17.3821 10.2 18.7155 10.2C19.9288 10.2 20.8621 10.4867 21.5155 11.06C22.1688 11.6333 22.4955 12.2933 22.4955 13.04C22.4955 13.6533 22.2021 14.0933 21.6155 14.36L17.1755 16.38C17.7221 17.54 18.6021 18.12 19.8155 18.12C20.3221 18.12 20.7755 18.0133 21.1755 17.8C21.5888 17.5733 21.8955 17.2933 22.0955 16.96ZM18.3555 11.08C17.8355 11.08 17.4221 11.3333 17.1155 11.84C16.8088 12.3333 16.6555 12.9667 16.6555 13.74C16.6555 14.3933 16.7221 14.9667 16.8555 15.46L19.4355 14.16C19.7821 13.9867 19.9555 13.6733 19.9555 13.22C19.9555 12.7667 19.8088 12.3 19.5155 11.82C19.2221 11.3267 18.8355 11.08 18.3555 11.08ZM27.9797 20.18C26.7264 20.18 25.6997 19.9533 24.8997 19.5C24.0997 19.0467 23.6997 18.5 23.6997 17.86C23.6997 17.5 23.8064 17.2267 24.0197 17.04C24.2464 16.8533 24.5397 16.76 24.8997 16.76C25.2864 16.76 25.5997 16.9 25.8397 17.18C26.0797 17.4467 26.2464 17.7467 26.3397 18.08C26.4464 18.4133 26.633 18.72 26.8997 19C27.1797 19.2667 27.5397 19.4 27.9797 19.4C28.4064 19.4 28.753 19.2867 29.0197 19.06C29.2997 18.8333 29.4397 18.5067 29.4397 18.08C29.4397 17.6 29.2464 17.22 28.8597 16.94C28.4864 16.66 28.0264 16.4533 27.4797 16.32C26.933 16.1733 26.3864 16.0133 25.8397 15.84C25.293 15.6533 24.8264 15.34 24.4397 14.9C24.0664 14.4467 23.8797 13.86 23.8797 13.14C23.8797 12.2867 24.253 11.5867 24.9997 11.04C25.7597 10.48 26.7397 10.2 27.9397 10.2C29.153 10.2 30.1397 10.44 30.8997 10.92C31.673 11.3867 32.0597 11.9467 32.0597 12.6C32.0597 12.8933 31.9464 13.14 31.7197 13.34C31.5064 13.54 31.2397 13.64 30.9197 13.64C30.5464 13.64 30.2464 13.5067 30.0197 13.24C29.793 12.96 29.633 12.66 29.5397 12.34C29.4464 12.0067 29.2797 11.7067 29.0397 11.44C28.7997 11.16 28.4864 11.02 28.0997 11.02C27.713 11.02 27.3997 11.1533 27.1597 11.42C26.9197 11.6733 26.7997 11.9867 26.7997 12.36C26.7997 12.7333 26.8997 13.0467 27.0997 13.3C27.2997 13.5533 27.5597 13.7467 27.8797 13.88C28.1997 14.0133 28.553 14.14 28.9397 14.26C29.3264 14.3667 29.713 14.4933 30.0997 14.64C30.4997 14.7733 30.8597 14.94 31.1797 15.14C31.4997 15.34 31.7597 15.6267 31.9597 16C32.1597 16.36 32.2597 16.8 32.2597 17.32C32.2597 18.1467 31.873 18.8333 31.0997 19.38C30.3264 19.9133 29.2864 20.18 27.9797 20.18ZM41.49 16.96C41.61 16.8 41.7567 16.7467 41.93 16.8C42.1033 16.8533 42.1833 16.98 42.17 17.18C42.1033 17.8733 41.7033 18.5533 40.97 19.22C40.2367 19.8733 39.2833 20.2 38.11 20.2C36.6967 20.2 35.5367 19.7333 34.63 18.8C33.7233 17.8667 33.27 16.64 33.27 15.12C33.27 13.6933 33.7433 12.52 34.69 11.6C35.6367 10.6667 36.7767 10.2 38.11 10.2C39.3233 10.2 40.2567 10.4867 40.91 11.06C41.5633 11.6333 41.89 12.2933 41.89 13.04C41.89 13.6533 41.5967 14.0933 41.01 14.36L36.57 16.38C37.1167 17.54 37.9967 18.12 39.21 18.12C39.7167 18.12 40.17 18.0133 40.57 17.8C40.9833 17.5733 41.29 17.2933 41.49 16.96ZM37.75 11.08C37.23 11.08 36.8167 11.3333 36.51 11.84C36.2033 12.3333 36.05 12.9667 36.05 13.74C36.05 14.3933 36.1167 14.9667 36.25 15.46L38.83 14.16C39.1767 13.9867 39.35 13.6733 39.35 13.22C39.35 12.7667 39.2033 12.3 38.91 11.82C38.6167 11.3267 38.23 11.08 37.75 11.08ZM49.2942 10.2C49.8676 10.2 50.3142 10.3733 50.6342 10.72C50.9676 11.0533 51.1342 11.4867 51.1342 12.02C51.1342 13.0733 50.7076 13.6 49.8542 13.6C49.5076 13.6 49.2342 13.5133 49.0342 13.34C48.8476 13.1533 48.7342 12.9533 48.6942 12.74C48.6542 12.5267 48.5742 12.3333 48.4542 12.16C48.3342 11.9733 48.1542 11.88 47.9142 11.88C47.5542 11.88 47.2876 12.0933 47.1142 12.52C46.9409 12.9467 46.8542 13.4667 46.8542 14.08V18.08C46.8542 18.32 46.9342 18.5333 47.0942 18.72C47.2676 18.8933 47.4342 19.0467 47.5942 19.18C47.7676 19.3133 47.8542 19.4467 47.8542 19.58V19.66C47.8542 19.8867 47.7076 20 47.4142 20H43.7142C43.4076 20 43.2542 19.8867 43.2542 19.66V19.58C43.2542 19.4467 43.3809 19.24 43.6342 18.96C43.9009 18.68 44.0342 18.3867 44.0342 18.08V13.4C44.0342 13.08 43.8809 12.7933 43.5742 12.54C43.2676 12.2867 43.1142 12.0933 43.1142 11.96V11.88C43.1142 11.6933 43.2542 11.5333 43.5342 11.4L45.9342 10.28C46.3609 10.08 46.5742 10.2133 46.5742 10.68V12.18C47.0276 10.86 47.9342 10.2 49.2942 10.2ZM61.6861 10.4C61.9661 10.4 62.1061 10.5067 62.1061 10.72V10.8C62.1061 10.96 61.9261 11.1867 61.5661 11.48C61.2061 11.76 60.9728 12.04 60.8661 12.32L58.1061 19.52C57.9994 19.84 57.7794 20 57.4461 20H56.1461C55.8528 20 55.6394 19.84 55.5061 19.52L52.1861 12.32C52.0794 12.08 51.8861 11.8133 51.6061 11.52C51.3394 11.2133 51.2061 10.9733 51.2061 10.8V10.72C51.2061 10.5067 51.3394 10.4 51.6061 10.4H55.5861C55.8528 10.4 55.9861 10.5133 55.9861 10.74V10.82C55.9861 10.9267 55.9261 11.06 55.8061 11.22C55.6861 11.38 55.5928 11.5333 55.5261 11.68C55.4594 11.8133 55.4728 12.0467 55.5661 12.38L57.6661 17.76L59.5461 12.76C59.6794 12.28 59.6928 11.9467 59.5861 11.76C59.4794 11.5733 59.3261 11.4 59.1261 11.24C58.9394 11.0667 58.8461 10.9267 58.8461 10.82V10.74C58.8461 10.5133 58.9861 10.4 59.2661 10.4H61.6861ZM71.4334 18C71.4734 18.3067 71.5468 18.5533 71.6534 18.74C71.7734 18.9267 71.8934 19.0467 72.0134 19.1C72.1334 19.14 72.2401 19.1933 72.3334 19.26C72.4268 19.3267 72.4734 19.42 72.4734 19.54C72.4734 19.9267 71.8334 20.12 70.5534 20.12C69.9668 20.12 69.5334 20.0467 69.2534 19.9C68.9868 19.74 68.8268 19.4533 68.7734 19.04C68.2534 19.8133 67.3668 20.2 66.1134 20.2C64.9934 20.2 64.0868 19.94 63.3934 19.42C62.7001 18.9 62.3534 18.1533 62.3534 17.18C62.3401 16.22 62.6801 15.4733 63.3734 14.94C64.0668 14.4067 64.9334 14.14 65.9734 14.14C66.8534 14.14 67.5801 14.34 68.1534 14.74L68.1334 14.5C68.0001 13.2333 67.8134 12.34 67.5734 11.82C67.3334 11.3 66.9268 11.04 66.3534 11.04C65.9934 11.04 65.7001 11.1733 65.4734 11.44C65.2468 11.7067 65.0868 12 64.9934 12.32C64.9001 12.64 64.7468 12.9333 64.5334 13.2C64.3201 13.4667 64.0468 13.6 63.7134 13.6C63.3534 13.6 63.0601 13.5 62.8334 13.3C62.6201 13.0867 62.5134 12.8133 62.5134 12.48C62.5134 11.7867 62.8801 11.2333 63.6134 10.82C64.3601 10.4067 65.2734 10.2 66.3534 10.2C67.6468 10.2 68.7068 10.5667 69.5334 11.3C70.3601 12.0333 70.8468 13.0333 70.9934 14.3L71.4334 18ZM66.9934 19.32C67.4334 19.32 67.7868 19.14 68.0534 18.78C68.3201 18.4067 68.4401 17.9867 68.4134 17.52L68.3534 16.82C68.3001 16.2467 68.1268 15.8067 67.8334 15.5C67.5534 15.1933 67.2001 15.04 66.7734 15.04C66.3468 15.04 65.9934 15.1933 65.7134 15.5C65.4468 15.8067 65.3134 16.2133 65.3134 16.72C65.3134 17.44 65.4668 18.0533 65.7734 18.56C66.0934 19.0667 66.5001 19.32 66.9934 19.32ZM83.4961 18.06C83.5228 18.38 83.6494 18.68 83.8761 18.96C84.1028 19.24 84.2161 19.4533 84.2161 19.6V19.68C84.2161 19.9067 84.0628 20.02 83.7561 20.02H80.2961C79.9894 20.02 79.8361 19.9067 79.8361 19.68V19.6C79.8361 19.4667 79.9561 19.26 80.1961 18.98C80.4494 18.7 80.5694 18.3933 80.5561 18.06L80.3561 14.36C80.2628 12.3467 79.6828 11.34 78.6161 11.34C78.0828 11.34 77.6628 11.54 77.3561 11.94C77.0628 12.34 76.9161 12.8733 76.9161 13.54V18.08C76.9161 18.4 77.0561 18.7 77.3361 18.98C77.6294 19.26 77.7761 19.4667 77.7761 19.6V19.68C77.7761 19.9067 77.6228 20.02 77.3161 20.02H73.5961C73.2894 20.02 73.1361 19.9067 73.1361 19.68V19.6C73.1361 19.4667 73.2761 19.26 73.5561 18.98C73.8494 18.7 73.9961 18.4 73.9961 18.08V13.42C73.9961 13.22 73.9428 13.04 73.8361 12.88C73.7428 12.72 73.6294 12.6067 73.4961 12.54C73.3761 12.46 73.2628 12.3667 73.1561 12.26C73.0628 12.1533 73.0161 12.0467 73.0161 11.94V11.86C73.0161 11.7133 73.1494 11.5733 73.4161 11.44L75.7961 10.28C76.0228 10.1733 76.1894 10.1667 76.2961 10.26C76.4161 10.34 76.4761 10.4867 76.4761 10.7V11.82C77.0494 10.74 78.0361 10.2 79.4361 10.2C80.4494 10.2 81.3094 10.54 82.0161 11.22C82.7361 11.9 83.1494 12.98 83.2561 14.46L83.4961 18.06ZM94.9273 18.08C94.9273 18.3867 95.0607 18.6867 95.3273 18.98C95.594 19.26 95.7273 19.4667 95.7273 19.6V19.66C95.7273 19.8867 95.594 20 95.3273 20H92.8473C92.5407 20 92.3873 19.8533 92.3873 19.56L92.3473 19.12C91.734 19.84 90.8673 20.2 89.7473 20.2C88.454 20.2 87.3473 19.7533 86.4273 18.86C85.5073 17.9533 85.0473 16.7267 85.0473 15.18C85.0473 13.7267 85.5073 12.5333 86.4273 11.6C87.3473 10.6667 88.4607 10.2 89.7673 10.2C90.7007 10.2 91.4807 10.46 92.1073 10.98V7.78C92.1073 7.51333 92.0207 7.29333 91.8473 7.12C91.6873 6.94667 91.5207 6.8 91.3473 6.68C91.1873 6.56 91.1073 6.43333 91.1073 6.3V6.24C91.1073 6.01333 91.2473 5.86 91.5273 5.78L94.1473 4.98C94.6673 4.80667 94.9273 4.94 94.9273 5.38V18.08ZM90.4073 19.34C90.8607 19.34 91.254 19.1533 91.5873 18.78C91.934 18.3933 92.1073 17.8667 92.1073 17.2V13.68C92.1073 13.0267 91.8873 12.4267 91.4473 11.88C91.0073 11.3333 90.5007 11.06 89.9273 11.06C89.314 11.06 88.8273 11.32 88.4673 11.84C88.1073 12.3467 87.9207 13.0667 87.9073 14C87.8807 14.76 87.954 15.54 88.1273 16.34C88.314 17.14 88.6073 17.84 89.0073 18.44C89.4207 19.0267 89.8873 19.3267 90.4073 19.34ZM102.168 20.2C100.581 20.2 99.2675 19.7133 98.2275 18.74C97.2008 17.7533 96.6875 16.5533 96.6875 15.14C96.6875 13.7133 97.1942 12.5333 98.2075 11.6C99.2208 10.6667 100.441 10.2 101.868 10.2C103.401 10.2 104.681 10.6867 105.708 11.66C106.734 12.62 107.248 13.8133 107.248 15.24C107.248 16.6667 106.761 17.8533 105.788 18.8C104.828 19.7333 103.621 20.2 102.168 20.2ZM102.528 19.32C103.074 19.32 103.494 19.0667 103.788 18.56C104.094 18.0533 104.248 17.34 104.248 16.42C104.248 15.66 104.134 14.88 103.908 14.08C103.694 13.2667 103.368 12.5667 102.928 11.98C102.488 11.38 102.001 11.08 101.467 11.08C100.241 11.08 99.6275 12.0533 99.6275 14C99.6275 14.72 99.7342 15.48 99.9475 16.28C100.174 17.08 100.514 17.7867 100.968 18.4C101.434 19.0133 101.954 19.32 102.528 19.32Z" fill="#3B096D"/>
</svg>
