<svg width="107" height="17" viewBox="0 0 107 17" fill="none" xmlns="http://www.w3.org/2000/svg">
<path d="M11.4909 14.08C11.6643 14.3467 11.8709 14.58 12.1109 14.78C12.3643 14.9667 12.5643 15.12 12.7109 15.24C12.8576 15.3467 12.9309 15.4667 12.9309 15.6V15.66C12.9309 15.8867 12.7776 16 12.4709 16H8.29094C7.9976 16 7.85094 15.8867 7.85094 15.66V15.6C7.85094 15.48 7.92427 15.3467 8.07094 15.2C8.23094 15.04 8.3376 14.9 8.39094 14.78C8.4576 14.6467 8.42427 14.4133 8.29094 14.08L6.19094 10.6L3.99094 10.64V14.08C3.99094 14.3867 4.13094 14.6867 4.41094 14.98C4.70427 15.26 4.85094 15.4667 4.85094 15.6V15.66C4.85094 15.8867 4.69094 16 4.37094 16H0.610938C0.317604 16 0.170938 15.8867 0.170938 15.66V15.6C0.170938 15.4667 0.297604 15.26 0.550938 14.98C0.804271 14.6867 0.930938 14.3867 0.930938 14.08V3.72C0.930938 3.41333 0.804271 3.12 0.550938 2.84C0.297604 2.54667 0.170938 2.33333 0.170938 2.2V2.12C0.170938 1.90667 0.317604 1.8 0.610938 1.8H5.55094C7.40427 1.8 8.87094 2.18 9.95094 2.94C11.0443 3.7 11.5976 4.81333 11.6109 6.28C11.6109 7.09333 11.3709 7.84667 10.8909 8.54C10.4243 9.22 9.75094 9.74667 8.87094 10.12L11.4909 14.08ZM5.11094 9.42H5.97094C6.73094 9.42 7.3376 9.18667 7.79094 8.72C8.2576 8.24 8.49094 7.54 8.49094 6.62C8.49094 5.52667 8.17094 4.65333 7.53094 4C6.90427 3.34667 6.1776 3.02 5.35094 3.02H4.67094C4.2176 3.02 3.99094 3.32 3.99094 3.92V8.08C3.99094 8.56 4.0776 8.90667 4.25094 9.12C4.4376 9.32 4.72427 9.42 5.11094 9.42ZM21.0955 12.96C21.2155 12.8 21.3621 12.7467 21.5355 12.8C21.7088 12.8533 21.7888 12.98 21.7755 13.18C21.7088 13.8733 21.3088 14.5533 20.5755 15.22C19.8421 15.8733 18.8888 16.2 17.7155 16.2C16.3021 16.2 15.1421 15.7333 14.2355 14.8C13.3288 13.8667 12.8755 12.64 12.8755 11.12C12.8755 9.69333 13.3488 8.52 14.2955 7.6C15.2421 6.66667 16.3821 6.2 17.7155 6.2C18.9288 6.2 19.8621 6.48667 20.5155 7.06C21.1688 7.63333 21.4955 8.29333 21.4955 9.04C21.4955 9.65333 21.2021 10.0933 20.6155 10.36L16.1755 12.38C16.7221 13.54 17.6021 14.12 18.8155 14.12C19.3221 14.12 19.7755 14.0133 20.1755 13.8C20.5888 13.5733 20.8955 13.2933 21.0955 12.96ZM17.3555 7.08C16.8355 7.08 16.4221 7.33333 16.1155 7.84C15.8088 8.33333 15.6555 8.96667 15.6555 9.74C15.6555 10.3933 15.7221 10.9667 15.8555 11.46L18.4355 10.16C18.7821 9.98667 18.9555 9.67333 18.9555 9.22C18.9555 8.76667 18.8088 8.3 18.5155 7.82C18.2221 7.32667 17.8355 7.08 17.3555 7.08ZM26.9797 16.18C25.7264 16.18 24.6997 15.9533 23.8997 15.5C23.0997 15.0467 22.6997 14.5 22.6997 13.86C22.6997 13.5 22.8064 13.2267 23.0197 13.04C23.2464 12.8533 23.5397 12.76 23.8997 12.76C24.2864 12.76 24.5997 12.9 24.8397 13.18C25.0797 13.4467 25.2464 13.7467 25.3397 14.08C25.4464 14.4133 25.633 14.72 25.8997 15C26.1797 15.2667 26.5397 15.4 26.9797 15.4C27.4064 15.4 27.753 15.2867 28.0197 15.06C28.2997 14.8333 28.4397 14.5067 28.4397 14.08C28.4397 13.6 28.2464 13.22 27.8597 12.94C27.4864 12.66 27.0264 12.4533 26.4797 12.32C25.933 12.1733 25.3864 12.0133 24.8397 11.84C24.293 11.6533 23.8264 11.34 23.4397 10.9C23.0664 10.4467 22.8797 9.86 22.8797 9.14C22.8797 8.28667 23.253 7.58667 23.9997 7.04C24.7597 6.48 25.7397 6.2 26.9397 6.2C28.153 6.2 29.1397 6.44 29.8997 6.92C30.673 7.38667 31.0597 7.94667 31.0597 8.6C31.0597 8.89333 30.9464 9.14 30.7197 9.34C30.5064 9.54 30.2397 9.64 29.9197 9.64C29.5464 9.64 29.2464 9.50667 29.0197 9.24C28.793 8.96 28.633 8.66 28.5397 8.34C28.4464 8.00667 28.2797 7.70667 28.0397 7.44C27.7997 7.16 27.4864 7.02 27.0997 7.02C26.713 7.02 26.3997 7.15333 26.1597 7.42C25.9197 7.67333 25.7997 7.98667 25.7997 8.36C25.7997 8.73333 25.8997 9.04667 26.0997 9.3C26.2997 9.55333 26.5597 9.74667 26.8797 9.88C27.1997 10.0133 27.553 10.14 27.9397 10.26C28.3264 10.3667 28.713 10.4933 29.0997 10.64C29.4997 10.7733 29.8597 10.94 30.1797 11.14C30.4997 11.34 30.7597 11.6267 30.9597 12C31.1597 12.36 31.2597 12.8 31.2597 13.32C31.2597 14.1467 30.873 14.8333 30.0997 15.38C29.3264 15.9133 28.2864 16.18 26.9797 16.18ZM40.49 12.96C40.61 12.8 40.7567 12.7467 40.93 12.8C41.1033 12.8533 41.1833 12.98 41.17 13.18C41.1033 13.8733 40.7033 14.5533 39.97 15.22C39.2367 15.8733 38.2833 16.2 37.11 16.2C35.6967 16.2 34.5367 15.7333 33.63 14.8C32.7233 13.8667 32.27 12.64 32.27 11.12C32.27 9.69333 32.7433 8.52 33.69 7.6C34.6367 6.66667 35.7767 6.2 37.11 6.2C38.3233 6.2 39.2567 6.48667 39.91 7.06C40.5633 7.63333 40.89 8.29333 40.89 9.04C40.89 9.65333 40.5967 10.0933 40.01 10.36L35.57 12.38C36.1167 13.54 36.9967 14.12 38.21 14.12C38.7167 14.12 39.17 14.0133 39.57 13.8C39.9833 13.5733 40.29 13.2933 40.49 12.96ZM36.75 7.08C36.23 7.08 35.8167 7.33333 35.51 7.84C35.2033 8.33333 35.05 8.96667 35.05 9.74C35.05 10.3933 35.1167 10.9667 35.25 11.46L37.83 10.16C38.1767 9.98667 38.35 9.67333 38.35 9.22C38.35 8.76667 38.2033 8.3 37.91 7.82C37.6167 7.32667 37.23 7.08 36.75 7.08ZM48.2942 6.2C48.8676 6.2 49.3142 6.37333 49.6342 6.72C49.9676 7.05333 50.1342 7.48667 50.1342 8.02C50.1342 9.07333 49.7076 9.6 48.8542 9.6C48.5076 9.6 48.2342 9.51333 48.0342 9.34C47.8476 9.15333 47.7342 8.95333 47.6942 8.74C47.6542 8.52667 47.5742 8.33333 47.4542 8.16C47.3342 7.97333 47.1542 7.88 46.9142 7.88C46.5542 7.88 46.2876 8.09333 46.1142 8.52C45.9409 8.94667 45.8542 9.46667 45.8542 10.08V14.08C45.8542 14.32 45.9342 14.5333 46.0942 14.72C46.2676 14.8933 46.4342 15.0467 46.5942 15.18C46.7676 15.3133 46.8542 15.4467 46.8542 15.58V15.66C46.8542 15.8867 46.7076 16 46.4142 16H42.7142C42.4076 16 42.2542 15.8867 42.2542 15.66V15.58C42.2542 15.4467 42.3809 15.24 42.6342 14.96C42.9009 14.68 43.0342 14.3867 43.0342 14.08V9.4C43.0342 9.08 42.8809 8.79333 42.5742 8.54C42.2676 8.28667 42.1142 8.09333 42.1142 7.96V7.88C42.1142 7.69333 42.2542 7.53333 42.5342 7.4L44.9342 6.28C45.3609 6.08 45.5742 6.21333 45.5742 6.68V8.18C46.0276 6.86 46.9342 6.2 48.2942 6.2ZM60.6861 6.4C60.9661 6.4 61.1061 6.50667 61.1061 6.72V6.8C61.1061 6.96 60.9261 7.18667 60.5661 7.48C60.2061 7.76 59.9728 8.04 59.8661 8.32L57.1061 15.52C56.9994 15.84 56.7794 16 56.4461 16H55.1461C54.8528 16 54.6394 15.84 54.5061 15.52L51.1861 8.32C51.0794 8.08 50.8861 7.81333 50.6061 7.52C50.3394 7.21333 50.2061 6.97333 50.2061 6.8V6.72C50.2061 6.50667 50.3394 6.4 50.6061 6.4H54.5861C54.8528 6.4 54.9861 6.51333 54.9861 6.74V6.82C54.9861 6.92667 54.9261 7.06 54.8061 7.22C54.6861 7.38 54.5928 7.53333 54.5261 7.68C54.4594 7.81333 54.4728 8.04667 54.5661 8.38L56.6661 13.76L58.5461 8.76C58.6794 8.28 58.6928 7.94667 58.5861 7.76C58.4794 7.57333 58.3261 7.4 58.1261 7.24C57.9394 7.06667 57.8461 6.92667 57.8461 6.82V6.74C57.8461 6.51333 57.9861 6.4 58.2661 6.4H60.6861ZM70.4334 14C70.4734 14.3067 70.5468 14.5533 70.6534 14.74C70.7734 14.9267 70.8934 15.0467 71.0134 15.1C71.1334 15.14 71.2401 15.1933 71.3334 15.26C71.4268 15.3267 71.4734 15.42 71.4734 15.54C71.4734 15.9267 70.8334 16.12 69.5534 16.12C68.9668 16.12 68.5334 16.0467 68.2534 15.9C67.9868 15.74 67.8268 15.4533 67.7734 15.04C67.2534 15.8133 66.3668 16.2 65.1134 16.2C63.9934 16.2 63.0868 15.94 62.3934 15.42C61.7001 14.9 61.3534 14.1533 61.3534 13.18C61.3401 12.22 61.6801 11.4733 62.3734 10.94C63.0668 10.4067 63.9334 10.14 64.9734 10.14C65.8534 10.14 66.5801 10.34 67.1534 10.74L67.1334 10.5C67.0001 9.23333 66.8134 8.34 66.5734 7.82C66.3334 7.3 65.9268 7.04 65.3534 7.04C64.9934 7.04 64.7001 7.17333 64.4734 7.44C64.2468 7.70667 64.0868 8 63.9934 8.32C63.9001 8.64 63.7468 8.93333 63.5334 9.2C63.3201 9.46667 63.0468 9.6 62.7134 9.6C62.3534 9.6 62.0601 9.5 61.8334 9.3C61.6201 9.08667 61.5134 8.81333 61.5134 8.48C61.5134 7.78667 61.8801 7.23333 62.6134 6.82C63.3601 6.40667 64.2734 6.2 65.3534 6.2C66.6468 6.2 67.7068 6.56667 68.5334 7.3C69.3601 8.03333 69.8468 9.03333 69.9934 10.3L70.4334 14ZM65.9934 15.32C66.4334 15.32 66.7868 15.14 67.0534 14.78C67.3201 14.4067 67.4401 13.9867 67.4134 13.52L67.3534 12.82C67.3001 12.2467 67.1268 11.8067 66.8334 11.5C66.5534 11.1933 66.2001 11.04 65.7734 11.04C65.3468 11.04 64.9934 11.1933 64.7134 11.5C64.4468 11.8067 64.3134 12.2133 64.3134 12.72C64.3134 13.44 64.4668 14.0533 64.7734 14.56C65.0934 15.0667 65.5001 15.32 65.9934 15.32ZM82.4961 14.06C82.5228 14.38 82.6494 14.68 82.8761 14.96C83.1028 15.24 83.2161 15.4533 83.2161 15.6V15.68C83.2161 15.9067 83.0628 16.02 82.7561 16.02H79.2961C78.9894 16.02 78.8361 15.9067 78.8361 15.68V15.6C78.8361 15.4667 78.9561 15.26 79.1961 14.98C79.4494 14.7 79.5694 14.3933 79.5561 14.06L79.3561 10.36C79.2628 8.34667 78.6828 7.34 77.6161 7.34C77.0828 7.34 76.6628 7.54 76.3561 7.94C76.0628 8.34 75.9161 8.87333 75.9161 9.54V14.08C75.9161 14.4 76.0561 14.7 76.3361 14.98C76.6294 15.26 76.7761 15.4667 76.7761 15.6V15.68C76.7761 15.9067 76.6228 16.02 76.3161 16.02H72.5961C72.2894 16.02 72.1361 15.9067 72.1361 15.68V15.6C72.1361 15.4667 72.2761 15.26 72.5561 14.98C72.8494 14.7 72.9961 14.4 72.9961 14.08V9.42C72.9961 9.22 72.9428 9.04 72.8361 8.88C72.7428 8.72 72.6294 8.60667 72.4961 8.54C72.3761 8.46 72.2628 8.36667 72.1561 8.26C72.0628 8.15333 72.0161 8.04667 72.0161 7.94V7.86C72.0161 7.71333 72.1494 7.57333 72.4161 7.44L74.7961 6.28C75.0228 6.17333 75.1894 6.16667 75.2961 6.26C75.4161 6.34 75.4761 6.48667 75.4761 6.7V7.82C76.0494 6.74 77.0361 6.2 78.4361 6.2C79.4494 6.2 80.3094 6.54 81.0161 7.22C81.7361 7.9 82.1494 8.98 82.2561 10.46L82.4961 14.06ZM93.9273 14.08C93.9273 14.3867 94.0607 14.6867 94.3273 14.98C94.594 15.26 94.7273 15.4667 94.7273 15.6V15.66C94.7273 15.8867 94.594 16 94.3273 16H91.8473C91.5407 16 91.3873 15.8533 91.3873 15.56L91.3473 15.12C90.734 15.84 89.8673 16.2 88.7473 16.2C87.454 16.2 86.3473 15.7533 85.4273 14.86C84.5073 13.9533 84.0473 12.7267 84.0473 11.18C84.0473 9.72667 84.5073 8.53333 85.4273 7.6C86.3473 6.66667 87.4607 6.2 88.7673 6.2C89.7007 6.2 90.4807 6.46 91.1073 6.98V3.78C91.1073 3.51333 91.0207 3.29333 90.8473 3.12C90.6873 2.94667 90.5207 2.8 90.3473 2.68C90.1873 2.56 90.1073 2.43333 90.1073 2.3V2.24C90.1073 2.01333 90.2473 1.86 90.5273 1.78L93.1473 0.979999C93.6673 0.806666 93.9273 0.939999 93.9273 1.38V14.08ZM89.4073 15.34C89.8607 15.34 90.254 15.1533 90.5873 14.78C90.934 14.3933 91.1073 13.8667 91.1073 13.2V9.68C91.1073 9.02667 90.8873 8.42667 90.4473 7.88C90.0073 7.33333 89.5007 7.06 88.9273 7.06C88.314 7.06 87.8273 7.32 87.4673 7.84C87.1073 8.34667 86.9207 9.06667 86.9073 10C86.8807 10.76 86.954 11.54 87.1273 12.34C87.314 13.14 87.6073 13.84 88.0073 14.44C88.4207 15.0267 88.8873 15.3267 89.4073 15.34ZM101.168 16.2C99.5808 16.2 98.2675 15.7133 97.2275 14.74C96.2008 13.7533 95.6875 12.5533 95.6875 11.14C95.6875 9.71333 96.1942 8.53333 97.2075 7.6C98.2208 6.66667 99.4408 6.2 100.868 6.2C102.401 6.2 103.681 6.68667 104.708 7.66C105.734 8.62 106.248 9.81333 106.248 11.24C106.248 12.6667 105.761 13.8533 104.788 14.8C103.828 15.7333 102.621 16.2 101.168 16.2ZM101.528 15.32C102.074 15.32 102.494 15.0667 102.788 14.56C103.094 14.0533 103.248 13.34 103.248 12.42C103.248 11.66 103.134 10.88 102.908 10.08C102.694 9.26667 102.368 8.56667 101.928 7.98C101.488 7.38 101.001 7.08 100.467 7.08C99.2408 7.08 98.6275 8.05333 98.6275 10C98.6275 10.72 98.7342 11.48 98.9475 12.28C99.1742 13.08 99.5142 13.7867 99.9675 14.4C100.434 15.0133 100.954 15.32 101.528 15.32Z" fill="#3B096D"/>
</svg>
