<svg width="14" height="16" fill="none" xmlns="http://www.w3.org/2000/svg"><path fill-rule="evenodd" clip-rule="evenodd" d="M13.5 14.156c0 .049-.016.08-.027.094H2.527a.155.155 0 01-.027-.094V6.75h11v7.406zM13.5 2h-.844V.875A.375.375 0 0012.281.5h-.75a.375.375 0 00-.375.375V2H4.875V.875A.375.375 0 004.5.5h-.75a.375.375 0 00-.375.375V2H2.5C1.673 2 1 2.673 1 3.5v10.656c0 .879.673 1.594 1.5 1.594h11c.827 0 1.5-.715 1.5-1.594V3.5c0-.827-.673-1.5-1.5-1.5zM4.719 9.719h.75a.375.375 0 00.375-.375v-.75a.375.375 0 00-.375-.375h-.75a.375.375 0 00-.375.375v.75c0 .207.168.375.375.375zm3 0h.75a.375.375 0 00.375-.375v-.75a.375.375 0 00-.375-.375h-.75a.375.375 0 00-.375.375v.75c0 .207.168.375.375.375zm3.004 0h.75a.375.375 0 00.375-.375v-.75a.375.375 0 00-.375-.375h-.75a.375.375 0 00-.375.375v.75c0 .207.168.375.375.375zm-6.004 2.75h.75a.375.375 0 00.375-.375v-.75a.375.375 0 00-.375-.375h-.75a.375.375 0 00-.375.375v.75c0 .207.168.375.375.375zm3 0h.75a.375.375 0 00.375-.375v-.75a.375.375 0 00-.375-.375h-.75a.375.375 0 00-.375.375v.75c0 .207.168.375.375.375zm3.004 0h.75a.375.375 0 00.375-.375v-.75a.375.375 0 00-.375-.375h-.75a.375.375 0 00-.375.375v.75c0 .207.168.375.375.375z" /></svg>
