<?xml version="1.0" encoding="UTF-8"?>
<svg fill="none" viewBox="0 0 18 18"
  xmlns="http://www.w3.org/2000/svg">
  <path d="M11.833 8.526V2.842L9 0 6.167 2.842v1.895H.5V18h17V8.526h-5.667zm-7.555 7.58h-1.89V14.21h1.89v1.895zm0-3.79h-1.89V10.42h1.89v1.895zm0-3.79h-1.89V6.632h1.89v1.894zm5.666 7.58H8.056V14.21h1.888v1.895zm0-3.79H8.056V10.42h1.888v1.895zm0-3.79H8.056V6.632h1.888v1.894zm0-3.79H8.056V2.843h1.888v1.895zm5.667 11.37h-1.889V14.21h1.89v1.895zm0-3.79h-1.889V10.42h1.89v1.895z" fill="currentColor"/>
</svg>
