<svg width="16" height="16" viewBox="0 0 16 16"  xmlns="http://www.w3.org/2000/svg">
  <path fill-rule="evenodd" d="M8 0.25C3.72009 0.25 0.25 3.72134 0.25 8C0.25 12.2812 3.72009 15.75 8 15.75C12.2799 15.75 15.75 12.2812 15.75 8C15.75 3.72134 12.2799 0.25 8 0.25ZM8 14.25C4.54588 14.25 1.75 11.4553 1.75 8C1.75 4.54703 4.546 1.75 8 1.75C11.4528 1.75 14.25 4.54597 14.25 8C14.25 11.4541 11.4553 14.25 8 14.25ZM9.3125 11C9.3125 11.7237 8.72372 12.3125 8 12.3125C7.27628 12.3125 6.6875 11.7237 6.6875 11C6.6875 10.2763 7.27628 9.6875 8 9.6875C8.72372 9.6875 9.3125 10.2763 9.3125 11ZM6.76969 4.39372L6.98219 8.64372C6.99216 8.84331 7.15691 9 7.35672 9H8.64328C8.84309 9 9.00784 8.84331 9.01781 8.64372L9.23031 4.39372C9.24103 4.17953 9.07025 4 8.85578 4H7.14422C6.92975 4 6.75897 4.17953 6.76969 4.39372Z" />
</svg>
