<svg xmlns="http://www.w3.org/2000/svg" viewBox="0 0 11 15">
  <path d="M6.144 3c.791 0 1.439-.59 1.439-1.314 0-.723-.648-1.314-1.439-1.314-.79 0-1.438.591-1.438 1.314 0 .723.647 1.315 1.438 1.315zm-2.66 2.236l-1.846 8.489c-.087.404.267.778.736.778.354 0 .659-.216.733-.518l1.167-4.74 1.51 1.315v3.314c0 .347.323.63.72.63.397 0 .72-.283.72-.63v-4.3L5.712 8.259l.431-1.972c.785.828 1.925 1.424 3.208 1.594.41.054.748-.245.748-.608s-.34-.65-.746-.724c-1.033-.19-1.88-.764-2.347-1.51l-.719-1.052C6 3.592 5.568 3.33 5.065 3.33c-.215 0-.36.065-.575.065L.75 4.841v2.46c0 .348.322.63.72.63.396 0 .718-.282.718-.63V5.696l1.295-.46z" fill-rule="evenodd"/>
</svg>
