<svg width="16" height="16" xmlns="http://www.w3.org/2000/svg"><path d="M8 14.25A6.257 6.257 0 0014.25 8 6.257 6.257 0 008 1.75 6.257 6.257 0 001.75 8 6.257 6.257 0 008 14.25zm5.48-11.73A7.7 7.7 0 0115.75 8a7.7 7.7 0 01-2.27 5.48A7.7 7.7 0 018 15.75a7.7 7.7 0 01-5.48-2.27A7.7 7.7 0 01.25 8a7.7 7.7 0 012.27-5.48A7.7 7.7 0 018 .25a7.7 7.7 0 015.48 2.27zM8.625 7c.207 0 .375.168.375.375V11.5a.375.375 0 01-.375.375h-1.25A.375.375 0 017 11.5V7.375C7 7.168 7.168 7 7.375 7h1.25zM8 3.594a1.25 1.25 0 110 2.5 1.25 1.25 0 010-2.5z" fill-rule="evenodd"/></svg>
