<svg width="12" height="13" viewBox="0 0 12 13" fill="none" xmlns="http://www.w3.org/2000/svg">
  <path d="M7.344 0.4H12V5.056H10.656V2.688L4.128 9.216L3.184 8.272L9.712 1.744H7.344V0.4ZM10.656 11.056V6.4H12V11.056C12 11.4187 11.8667 11.7333 11.6 12C11.3333 12.2667 11.0187 12.4 10.656 12.4H1.344C0.970667 12.4 0.650667 12.2667 0.384 12C0.128 11.7333 0 11.4187 0 11.056V1.744C0 1.38133 0.128 1.06667 0.384 0.799999C0.650667 0.533333 0.970667 0.4 1.344 0.4H6V1.744H1.344V11.056H10.656Z" fill="currentColor"/>
</svg>
