<svg width="64" height="48" viewBox="0 0 64 48" fill="currentColor" xmlns="http://www.w3.org/2000/svg">
  <path fill-rule="evenodd" clip-rule="evenodd" d="M58 0H6C2.68625 0 0 2.68625 0 6V42C0 45.3138 2.68625 48 6 48H58C61.3138 48 64 45.3138 64 42V6C64 2.68625 61.3138 0 58 0ZM58 6V11.1006C55.1973 13.383 50.729 16.932 41.1766 24.4119C39.0715 26.0677 34.9015 30.0459 32 29.9995C29.099 30.0464 24.9276 26.0671 22.8234 24.4119C13.2725 16.9331 8.80313 13.3834 6 11.1006V6H58ZM6 42V18.7997C8.86425 21.0811 12.9261 24.2825 19.1173 29.1305C21.8494 31.2811 26.634 36.0287 32 35.9999C37.3396 36.0287 42.0636 31.35 44.8816 29.1315C51.0726 24.2836 55.1356 21.0814 58 18.7999V42H6Z" fill="currentColor"/>
</svg>
