<svg version="1.1" viewBox="0 0 14 11"
  xmlns="http://www.w3.org/2000/svg"
  xmlns:xlink="http://www.w3.org/1999/xlink">
  <defs>
    <path id="a" d="m58.477 70c0.17188 0 0.32813-0.085938 0.42188-0.22656 0.71875-1.1328 1.1016-2.4297 1.1016-3.7735 0-3.8594-3.1406-7-7-7-3.8594 0-7 3.1406-7 7 0 1.3438 0.38281 2.6484 1.1016 3.7735 0.09375 0.14063 0.25 0.22656 0.42188 0.22656h10.953zm-5.4766-8c-0.55469 0-1-0.44531-1-1 0-0.55469 0.44531-1 1-1 0.55469 0 1 0.44531 1 1 0 0.55469-0.44531 1-1 1zm-3.5 1.5c-0.55469 0-1-0.44531-1-1 0-0.55469 0.44531-1 1-1 0.55469 0 1 0.44531 1 1 0 0.55469-0.44531 1-1 1zm7 0c-0.55469 0-1-0.44531-1-1 0-0.55469 0.44531-1 1-1 0.55469 0 1 0.44531 1 1 0 0.55469-0.44531 1-1 1zm-3.8828 5.4531c-0.79688-0.21094-1.2813-1.0313-1.0703-1.8359 0.17188-0.63281 0.71094-1.0625 1.3281-1.1094l0.78906-2.9844c0.070313-0.26563 0.34375-0.42969 0.60938-0.35938 0.26563 0.070313 0.42188 0.34375 0.35938 0.60938l-0.78906 2.9844c0.50781 0.35156 0.77344 0.99219 0.60938 1.625-0.21094 0.79688-1.0313 1.2813-1.8359 1.0703zm-4.6172-1.9531c-0.55469 0-1-0.44531-1-1 0-0.55469 0.44531-1 1-1 0.55469 0 1 0.44531 1 1 0 0.55469-0.44531 1-1 1zm10 0c-0.55469 0-1-0.44531-1-1 0-0.55469 0.44531-1 1-1 0.55469 0 1 0.44531 1 1 0 0.55469-0.44531 1-1 1z"/>
  </defs>
  <g fill="none" fill-rule="evenodd">
    <g transform="translate(-46 -59)" fill-rule="nonzero">
      <g fill="currentColor">
        <use xlink:href="#a"/>
        <use xlink:href="#a"/>
      </g>
    </g>
  </g>
</svg>
