<svg width="14" height="15" viewBox="0 0 14 15" fill="none" xmlns="http://www.w3.org/2000/svg">
  <path d="M7.656 10.056V4.744H9V10.056H7.656ZM7 12.744C7.96 12.744 8.856 12.4987 9.688 12.008C10.4987 11.5387 11.1387 10.8987 11.608 10.088C12.0987 9.256 12.344 8.36 12.344 7.4C12.344 6.44 12.0987 5.544 11.608 4.712C11.1387 3.90133 10.4987 3.26133 9.688 2.792C8.856 2.30133 7.96 2.056 7 2.056C6.04 2.056 5.144 2.30133 4.312 2.792C3.50133 3.26133 2.86133 3.90133 2.392 4.712C1.90133 5.544 1.656 6.44 1.656 7.4C1.656 8.36 1.90133 9.256 2.392 10.088C2.86133 10.8987 3.50133 11.5387 4.312 12.008C5.144 12.4987 6.04 12.744 7 12.744ZM7 0.743999C8.216 0.743999 9.34133 1.048 10.376 1.656C11.3787 2.232 12.168 3.02133 12.744 4.024C13.352 5.05867 13.656 6.184 13.656 7.4C13.656 8.616 13.352 9.74133 12.744 10.776C12.168 11.7787 11.3787 12.568 10.376 13.144C9.34133 13.752 8.216 14.056 7 14.056C5.784 14.056 4.65867 13.752 3.624 13.144C2.62133 12.5573 1.832 11.7627 1.256 10.76C0.648 9.72533 0.344 8.60533 0.344 7.4C0.344 6.19467 0.648 5.07467 1.256 4.04C1.84267 3.03733 2.63733 2.24267 3.64 1.656C4.67467 1.048 5.79467 0.743999 7 0.743999ZM5 10.056V4.744H6.344V10.056H5Z" fill="currentColor"/>
</svg>
