<svg width="21" height="21" viewBox="0 0 21 21" xmlns="http://www.w3.org/2000/svg">
	<path d="M0 10.5C0 4.7 4.7 0 10.5 0S21 4.7 21 10.5 16.3 21 10.5 21 0 16.3 0 10.5zm9.627 2.422h1.783c.01-.754.188-1.327.534-1.72l.966-.95c.795-.827 1.193-1.668 1.193-2.52 0-.96-.294-1.705-.883-2.24-.59-.533-1.41-.8-2.462-.8-1.02 0-1.84.27-2.462.81-.62.538-.936 1.27-.946 2.198h1.908c0-.435.138-.78.412-1.033.275-.254.638-.38 1.088-.38.47 0 .828.13 1.072.388.243.26.365.635.365 1.127 0 .37-.105.717-.314 1.036-.135.21-.458.562-.97 1.057-.51.494-.85.948-1.024 1.362-.172.414-.26.968-.26 1.665zm-.133 2.442c0 .288.093.53.28.722.184.194.45.29.796.29.345 0 .612-.096.8-.29.19-.193.283-.434.283-.722 0-.3-.097-.546-.29-.742-.194-.197-.458-.295-.793-.295-.33 0-.592.096-.786.287-.193.19-.29.44-.29.75z"
	    fill-rule="evenodd"/>
</svg>