<svg width="15" height="15" xmlns="http://www.w3.org/2000/svg"><path d="M13.929 15c.18 0 .341-.07.462-.2.13-.131.19-.302.18-.473a14.142 14.142 0 00-4.158-9.311A14.142 14.142 0 001.102.857h-.03c-.161 0-.322.06-.443.18-.13.121-.2.282-.2.463v1.436c0 .332.26.613.602.633A11.5 11.5 0 0111.85 14.397a.64.64 0 00.643.603h1.437zm-5.143 0c.18 0 .351-.07.472-.21a.65.65 0 00.17-.483 9.022 9.022 0 00-2.631-5.675A9.022 9.022 0 001.122 6h-.05C.91 6 .75 6.06.64 6.17a.611.611 0 00-.211.473v1.356c0 .331.25.603.582.633a6.427 6.427 0 015.786 5.785c.03.332.301.583.633.583h1.356zm-6.429 0a1.93 1.93 0 100-3.858 1.93 1.93 0 000 3.858z" fill-rule="nonzero"/></svg>
