<svg width="18px" height="14px" viewBox="0 0 18 14" version="1.1" xmlns="http://www.w3.org/2000/svg" xmlns:xlink="http://www.w3.org/1999/xlink">
    <g stroke="none" stroke-width="1" fill="none" fill-rule="evenodd">
        <g id="Tablet" transform="translate(-385.000000, -515.000000)" fill="currentColor" fill-rule="nonzero">
            <path d="M402.649576,518.174094 C402.649576,518.453112 402.537969,518.732131 402.337075,518.933024 L392.73885,528.531249 C392.537957,528.732143 392.258938,528.84375 391.97992,528.84375 C391.700902,528.84375 391.421884,528.732143 391.220991,528.531249 L385.662948,522.973207 C385.462055,522.772314 385.350448,522.493296 385.350448,522.214278 C385.350448,521.935259 385.462055,521.656241 385.662948,521.455348 L387.180807,519.937489 C387.3817,519.736596 387.660719,519.624989 387.939737,519.624989 C388.218755,519.624989 388.497773,519.736596 388.698666,519.937489 L391.97992,523.229904 L399.301358,515.897306 C399.502251,515.696413 399.781269,515.584805 400.060287,515.584805 C400.339305,515.584805 400.618323,515.696413 400.819216,515.897306 L402.337075,517.415165 C402.537969,517.616058 402.649576,517.895076 402.649576,518.174094 Z" id=""></path>
        </g>
    </g>
</svg>
