<svg width="16" height="16" viewBox="0 0 16 16"  xmlns="http://www.w3.org/2000/svg">
  <path fill-rule="evenodd" d="M8 0.25C3.72009 0.25 0.25 3.72134 0.25 8C0.25 12.2812 3.72009 15.75 8 15.75C12.2799 15.75 15.75 12.2812 15.75 8C15.75 3.72134 12.2799 0.25 8 0.25ZM10.7382 5.38595C11.0063 5.13802 11.4284 5.13802 11.6965 5.38595L12.1847 5.83791C12.4715 6.10332 12.4717 6.54816 12.1849 6.81357L7.7976 10.8747L7.31053 11.3341C6.92747 11.6886 6.31944 11.6886 5.93637 11.3341L3.81537 9.37101C3.52845 9.10558 3.52828 8.66044 3.81522 8.39502L4.30318 7.94347C4.52355 7.73943 4.84806 7.70294 5.10556 7.83418C5.16144 7.86266 5.21416 7.89903 5.26198 7.94331L6.61889 9.19908L10.7382 5.38595Z" />
</svg>
