<svg width="16px" height="10px" viewBox="0 0 16 10" version="1.1"
  xmlns="http://www.w3.org/2000/svg"
  xmlns:xlink="http://www.w3.org/1999/xlink">
  <defs>
    <path d="M58.0000131,108 C60.7578289,108 63.0000191,105.75781 63.0000191,102.999988 C63.0000191,100.242178 60.7578289,97.9999881 58.0000131,97.9999881 L52,97.9999881 C49.2421902,97.9999881 47,100.242178 47,102.999988 C47,105.75781 49.2421902,108 52,108 L58.0000131,108 Z M52.0000012,106.999989 C49.7968783,106.999989 48.0000012,105.203122 48.0000012,102.999989 C48.0000012,100.796866 49.7968783,98.9999893 52.0000012,98.9999893 C54.2031336,98.9999893 56.0000012,100.796866 56.0000012,102.999989 C56.0000012,105.203122 54.2031336,106.999989 52.0000012,106.999989 Z M58.0000131,106.999989 L54.9843845,106.999989 C56.203136,106.085935 57.0000119,104.632808 57.0000119,102.999989 C57.0000119,101.36718 56.203136,99.9140529 54.9843845,98.9999893 L58.0000131,98.9999893 C60.2031407,98.9999893 62.0000179,100.796866 62.0000179,102.999989 C62.0000179,105.203122 60.2031407,106.999989 58.0000131,106.999989 Z" id="path-1"></path>
  </defs>
  <g stroke="none" stroke-width="1" fill="none" fill-rule="evenodd">
    <g transform="translate(-47.000000, -98.000000)" fill-rule="nonzero">
      <g>
        <use fill="currentColor" xlink:href="#path-1"></use>
        <use fill="currentColor" xlink:href="#path-1"></use>
      </g>
    </g>
  </g>
</svg>
