<svg width="21" height="16" xmlns="http://www.w3.org/2000/svg"><path d="M6.852 16c7.343 0 11.36-6.082 11.36-11.361 0-.173 0-.346-.011-.52a8.585 8.585 0 002.002-2.064 8.006 8.006 0 01-2.3.618 3.982 3.982 0 001.756-2.2 7.861 7.861 0 01-2.534.964A3.984 3.984 0 0014.207.176a3.991 3.991 0 00-3.993 3.993c0 .309.037.618.1.915A11.35 11.35 0 012.08.905a3.963 3.963 0 00-.544 2.015 3.99 3.99 0 001.78 3.326 4.022 4.022 0 01-1.805-.507v.05a3.994 3.994 0 003.202 3.918 4.221 4.221 0 01-1.05.136c-.26 0-.508-.024-.755-.061a4 4 0 003.733 2.769 7.997 7.997 0 01-4.957 1.706c-.334 0-.643-.012-.964-.05A11.284 11.284 0 006.852 16z" fill-rule="nonzero"/></svg>
