<svg xmlns="http://www.w3.org/2000/svg" viewBox="0 0 28 28">
	<path d="M22.54 5.46c2.28 2.28 3.53 5.32 3.53 8.54s-1.25 6.26-3.53 8.54c-2.28 2.28-5.3 3.53-8.54 3.53s-6.26-1.25-8.54-3.53c-2.28-2.28-3.53-5.3-3.53-8.54s1.25-6.26 3.53-8.54C7.74 3.18 10.78 1.93 14 1.93s6.26 1.25 8.54 3.53zm1.12 10.47c-.3.43-.58.6-.76-.37-.17-1.56-1.63-.56-2.54-1.12-.97.64-3.13-1.24-2.76.88.56.96 3.06-1.28 1.8.75-.78 1.4-2.9 4.55-2.6 6.17.02 2.37-2.47.5-3.32-.3-.58-1.56-.2-4.3-1.7-5.08-1.65-.07-3.05-.22-3.7-2.02-.37-1.3.42-3.2 1.82-3.5 2.06-1.28 2.8 1.48 4.72 1.54.6-.62 2.23-.82 2.36-1.5-1.26-.23 1.6-1.06-.12-1.53-.95.1-1.56.98-1.06 1.7-1.84.43-1.9-2.62-3.67-1.66-.05 1.5-2.9.44-1 .14.67-.3-1.06-1.1-.13-.95.46-.03 2-.56 1.6-.9.84-.5 1.56 1.25 2.4-.05.6-1-.25-1.18-1-.68-.44-.5.75-1.5 1.8-1.95.34-.15.67-.23.93-.2.52.6 1.5.7 1.55-.08-1.3-.6-2.74-.94-4.23-.94-2.14 0-4.17.7-5.85 1.9.45.2.7.5.27.8-.34 1-1.7 2.34-2.9 2.15-.64 1.06-1.05 2.23-1.23 3.46 1 .35 1.24 1 1.03 1.2-.52.46-.83 1.08-1 1.77.33 1.98 1.28 3.8 2.75 5.25 1.85 1.83 4.3 2.84 6.93 2.84s5.08-1 6.93-2.83c1.38-1.35 2.3-3.04 2.68-4.9z"/>
</svg>