<svg width="0" height="0" style="position:absolute"><symbol fill="none" viewBox="0 0 24 24" id="arrow-left" xmlns="http://www.w3.org/2000/svg"><path d="M19 12H5M12 19l-7-7 7-7" stroke="currentColor" stroke-width="2" stroke-linecap="round" stroke-linejoin="round"/></symbol><symbol fill="none" viewBox="0 0 24 24" id="close" xmlns="http://www.w3.org/2000/svg"><path d="M18 6L6 18M6 6l12 12" stroke="currentColor" stroke-width="2" stroke-linecap="round" stroke-linejoin="round"/></symbol><symbol fill="none" viewBox="0 0 22 20" id="facebook" xmlns="http://www.w3.org/2000/svg"><path fill-rule="evenodd" clip-rule="evenodd" d="M9.99.054a10.081 10.081 0 00-7.36 4.432C.624 7.49.384 11.375 2.006 14.582a10.092 10.092 0 003.376 3.85c.998.678 2.75 1.396 3.718 1.525l.326.043v-7.034H6.934v-2.885h2.479l.03-1.623c.03-1.753.065-1.959.442-2.706.537-1.061 1.62-1.715 2.997-1.811.527-.037 1.865.046 2.37.147l.207.041v2.548l-.902-.015c-1.032-.016-1.275.06-1.65.515-.292.354-.332.572-.333 1.805v1.099h2.754v.159c0 .088-.088.724-.197 1.415-.108.69-.197 1.282-.197 1.316 0 .035-.495.06-1.18.06h-1.18V20l.326-.043c.574-.076 1.652-.43 2.4-.788a9.994 9.994 0 004.712-4.62c1.601-3.19 1.354-7.073-.642-10.063C17.304 1.39 13.655-.333 9.99.054z" fill="currentColor"/></symbol><symbol fill="none" viewBox="0 0 20 21" id="google" xmlns="http://www.w3.org/2000/svg"><g clip-path="url(#dclip0)"><path d="M4.432 12.586l-.696 2.599-2.544.054A9.956 9.956 0 010 10.499a9.95 9.95 0 011.118-4.598l2.266.415.992 2.252a5.944 5.944 0 00-.32 1.932c0 .734.132 1.437.376 2.086z" fill="#FBBB00"/><path d="M19.825 8.632a10.018 10.018 0 01-.044 3.956 9.998 9.998 0 01-3.52 5.71h-.001l-2.854-.146-.403-2.52a5.96 5.96 0 002.564-3.044H10.22V8.632h9.605z" fill="#518EF8"/><path d="M16.26 18.297l.001.001a9.958 9.958 0 01-6.26 2.202 9.998 9.998 0 01-8.809-5.261l3.241-2.653a5.946 5.946 0 008.57 3.045l3.258 2.666z" fill="#28B446"/><path d="M16.383 2.802l-3.24 2.652a5.948 5.948 0 00-8.767 3.114L1.12 5.901A9.998 9.998 0 0110 .5c2.426 0 4.651.864 6.383 2.302z" fill="#F14336"/></g><defs><clipPath id="dclip0"><path fill="#fff" transform="translate(0 .5)" d="M0 0h20v20H0z"/></clipPath></defs></symbol><symbol fill="none" viewBox="0 0 24 24" id="minus" xmlns="http://www.w3.org/2000/svg"><path d="M5 12h14" stroke="currentColor" stroke-width="2" stroke-linecap="round" stroke-linejoin="round"/></symbol><symbol fill="none" viewBox="0 0 24 24" id="plus" xmlns="http://www.w3.org/2000/svg"><path d="M5 12h14M12 5v14" stroke="currentColor" stroke-width="2" stroke-linecap="round" stroke-linejoin="round"/></symbol></svg>